# MagicaVoxel @ Ephtracy

# group
o 

# material
mtllib 3pcError.mtl
usemtl palette

# normals
vn -1 0 0
vn 1 0 0
vn 0 0 1
vn 0 0 -1
vn 0 -1 0
vn 0 1 0

# texcoords
vt 0.00585938 0.5
vt 0.498047 0.5
vt 0.685547 0.5
vt 0.712891 0.5
vt 0.841797 0.5
vt 0.931641 0.5
vt 0.970703 0.5
vt 0.974609 0.5
vt 0.978516 0.5
vt 0.994141 0.5

# verts
v 1 2 -0.3
v 1 2 -3.6
v 1 5 -0.3
v 1 5 -0.6
v 1 5.3 -0.3
v 1 5.3 -0.6
v 1 8.3 -0.3
v 1 8.3 -3.6
v 1.6 5.9 -0.3
v 1.6 5.9 -0.6
v 1.6 6.1 -0.3
v 1.6 6.1 -0.6
v 1.8 6 -0.3
v 1.8 6 -0.4
v 1.8 6.1 -0.3
v 1.8 6.1 -0.4
v 1.9 5.9 -0.3
v 1.9 5.9 -0.4
v 1.9 6 -0.3
v 1.9 6 -0.4
v 2 6 -0.3
v 2 6 -0.4
v 2 6.1 -0.3
v 2 6.1 -0.4
v 2.1 5.9 -0.3
v 2.1 5.9 -0.4
v 2.1 6 -0.3
v 2.1 6 -0.4
v 2.2 6 -0.3
v 2.2 6 -0.4
v 2.2 6.1 -0.3
v 2.2 6.1 -0.4
v 2.3 5.9 -0.3
v 2.3 5.9 -0.4
v 2.3 6 -0.3
v 2.3 6 -0.4
v 2.4 6 -0.3
v 2.4 6 -0.4
v 2.4 6.1 -0.3
v 2.4 6.1 -0.4
v 2.5 5.9 -0.3
v 2.5 5.9 -0.4
v 2.5 6 -0.3
v 2.5 6 -0.4
v 2.5 6.3 -0.2
v 2.5 6.3 -0.3
v 2.5 6.7 -0.2
v 2.5 6.7 -0.3
v 2.8 2.3 -0.3
v 2.8 2.3 -0.6
v 2.8 4.7 -0.3
v 2.8 4.7 -0.6
v 2.8 6.4 -0.2
v 2.8 6.4 -0.3
v 2.8 6.6 -0.2
v 2.8 6.6 -0.3
v 2.8 6.8 -0.3
v 2.8 6.8 -0.6
v 2.8 8 -0.3
v 2.8 8 -0.6
v 1.3 2.3 -0.3
v 1.3 2.3 -0.6
v 1.3 4.7 -0.3
v 1.3 4.7 -0.6
v 1.3 6.8 -0.3
v 1.3 6.8 -0.6
v 1.3 8 -0.3
v 1.3 8 -0.6
v 1.4 5.9 -0.3
v 1.4 5.9 -0.6
v 1.4 6.1 -0.3
v 1.4 6.1 -0.6
v 1.7 6 -0.3
v 1.7 6 -0.4
v 1.7 6.1 -0.3
v 1.7 6.1 -0.4
v 1.8 5.9 -0.3
v 1.8 5.9 -0.4
v 1.8 6 -0.3
v 1.8 6 -0.4
v 1.9 6 -0.3
v 1.9 6 -0.4
v 1.9 6.1 -0.3
v 1.9 6.1 -0.4
v 2 5.9 -0.3
v 2 5.9 -0.4
v 2 6 -0.3
v 2 6 -0.4
v 2.1 6 -0.3
v 2.1 6 -0.4
v 2.1 6.1 -0.3
v 2.1 6.1 -0.4
v 2.2 5.9 -0.3
v 2.2 5.9 -0.4
v 2.2 6 -0.3
v 2.2 6 -0.4
v 2.3 6 -0.3
v 2.3 6 -0.4
v 2.3 6.1 -0.3
v 2.3 6.1 -0.4
v 2.4 5.9 -0.3
v 2.4 5.9 -0.4
v 2.4 6 -0.3
v 2.4 6 -0.4
v 2.6 6.4 -0.2
v 2.6 6.4 -0.3
v 2.6 6.6 -0.2
v 2.6 6.6 -0.3
v 2.9 6.3 -0.2
v 2.9 6.3 -0.3
v 2.9 6.7 -0.2
v 2.9 6.7 -0.3
v 3.1 2 -0.3
v 3.1 2 -3.6
v 3.1 5 -0.3
v 3.1 5 -0.6
v 3.1 5.3 -0.3
v 3.1 5.3 -0.6
v 3.1 8.3 -0.3
v 3.1 8.3 -3.6
v 2.5 6.3 -0.2
v 2.5 6.7 -0.2
v 2.6 6.4 -0.2
v 2.6 6.6 -0.2
v 2.8 6.4 -0.2
v 2.8 6.6 -0.2
v 2.9 6.3 -0.2
v 2.9 6.7 -0.2
v 1 2 -0.3
v 1 5 -0.3
v 1 5.3 -0.3
v 1 8.3 -0.3
v 1.3 2.3 -0.3
v 1.3 4.7 -0.3
v 1.3 6.8 -0.3
v 1.3 8 -0.3
v 1.4 5.9 -0.3
v 1.4 6.1 -0.3
v 1.6 5.9 -0.3
v 1.6 6.1 -0.3
v 1.7 6 -0.3
v 1.7 6.1 -0.3
v 1.8 5.9 -0.3
v 1.8 6 -0.3
v 1.8 6.1 -0.3
v 1.9 5.9 -0.3
v 1.9 6 -0.3
v 1.9 6.1 -0.3
v 2 5.9 -0.3
v 2 6 -0.3
v 2 6.1 -0.3
v 2.1 5.9 -0.3
v 2.1 6 -0.3
v 2.1 6.1 -0.3
v 2.2 5.9 -0.3
v 2.2 6 -0.3
v 2.2 6.1 -0.3
v 2.3 5.9 -0.3
v 2.3 6 -0.3
v 2.3 6.1 -0.3
v 2.4 5.9 -0.3
v 2.4 6 -0.3
v 2.4 6.1 -0.3
v 2.5 5.9 -0.3
v 2.5 6 -0.3
v 2.5 6.3 -0.3
v 2.5 6.7 -0.3
v 2.6 6.4 -0.3
v 2.6 6.6 -0.3
v 2.8 2.3 -0.3
v 2.8 4.7 -0.3
v 2.8 6.4 -0.3
v 2.8 6.6 -0.3
v 2.8 6.8 -0.3
v 2.8 8 -0.3
v 2.9 6.3 -0.3
v 2.9 6.7 -0.3
v 3.1 2 -0.3
v 3.1 5 -0.3
v 3.1 5.3 -0.3
v 3.1 8.3 -0.3
v 1.7 6 -0.4
v 1.7 6.1 -0.4
v 1.8 5.9 -0.4
v 1.8 6 -0.4
v 1.8 6.1 -0.4
v 1.9 5.9 -0.4
v 1.9 6 -0.4
v 1.9 6.1 -0.4
v 2 5.9 -0.4
v 2 6 -0.4
v 2 6.1 -0.4
v 2.1 5.9 -0.4
v 2.1 6 -0.4
v 2.1 6.1 -0.4
v 2.2 5.9 -0.4
v 2.2 6 -0.4
v 2.2 6.1 -0.4
v 2.3 5.9 -0.4
v 2.3 6 -0.4
v 2.3 6.1 -0.4
v 2.4 5.9 -0.4
v 2.4 6 -0.4
v 2.4 6.1 -0.4
v 2.5 5.9 -0.4
v 2.5 6 -0.4
v 1 5 -0.6
v 1 5.3 -0.6
v 1.3 2.3 -0.6
v 1.3 4.7 -0.6
v 1.3 6.8 -0.6
v 1.3 8 -0.6
v 1.4 5.9 -0.6
v 1.4 6.1 -0.6
v 1.5 7.4 -0.6
v 1.5 7.8 -0.6
v 1.6 2.6 -0.6
v 1.6 2.9 -0.6
v 1.6 3 -0.6
v 1.6 3.1 -0.6
v 1.6 3.8 -0.6
v 1.6 4.1 -0.6
v 1.6 5.9 -0.6
v 1.6 6.1 -0.6
v 1.6 7.5 -0.6
v 1.6 7.8 -0.6
v 1.7 3 -0.6
v 1.7 3.1 -0.6
v 1.7 7.2 -0.6
v 1.7 7.4 -0.6
v 1.7 7.5 -0.6
v 1.7 7.8 -0.6
v 1.8 3 -0.6
v 1.8 3.1 -0.6
v 1.8 7.2 -0.6
v 1.8 7.8 -0.6
v 1.9 7.2 -0.6
v 1.9 7.8 -0.6
v 2 3 -0.6
v 2 3.1 -0.6
v 2 7.3 -0.6
v 2 7.7 -0.6
v 2.1 3 -0.6
v 2.1 3.1 -0.6
v 2.1 7.3 -0.6
v 2.1 7.7 -0.6
v 2.2 3 -0.6
v 2.2 3.1 -0.6
v 2.2 3.2 -0.6
v 2.2 3.5 -0.6
v 2.2 3.8 -0.6
v 2.2 4.1 -0.6
v 2.2 7.2 -0.6
v 2.2 7.8 -0.6
v 2.3 3 -0.6
v 2.3 3.1 -0.6
v 2.3 7.4 -0.6
v 2.3 7.8 -0.6
v 2.4 3 -0.6
v 2.4 3.1 -0.6
v 2.4 4 -0.6
v 2.4 4.1 -0.6
v 2.4 7.5 -0.6
v 2.4 7.8 -0.6
v 2.5 2.6 -0.6
v 2.5 2.9 -0.6
v 2.5 3.2 -0.6
v 2.5 3.5 -0.6
v 2.5 4 -0.6
v 2.5 4.1 -0.6
v 2.5 7.2 -0.6
v 2.5 7.4 -0.6
v 2.5 7.5 -0.6
v 2.5 7.8 -0.6
v 2.6 7.2 -0.6
v 2.6 7.8 -0.6
v 2.8 2.3 -0.6
v 2.8 4.7 -0.6
v 2.8 6.8 -0.6
v 2.8 8 -0.6
v 3.1 5 -0.6
v 3.1 5.3 -0.6
v 1 2 -3.6
v 1 8.3 -3.6
v 3.1 2 -3.6
v 3.1 8.3 -3.6
v 1 2 -0.3
v 3.1 2 -0.3
v 1 2 -3.6
v 3.1 2 -3.6
v 1.3 4.7 -0.3
v 2.8 4.7 -0.3
v 1.3 4.7 -0.6
v 2.8 4.7 -0.6
v 1 5.3 -0.3
v 3.1 5.3 -0.3
v 1 5.3 -0.6
v 3.1 5.3 -0.6
v 1.8 6 -0.3
v 1.9 6 -0.3
v 2 6 -0.3
v 2.1 6 -0.3
v 2.2 6 -0.3
v 2.3 6 -0.3
v 2.4 6 -0.3
v 2.5 6 -0.3
v 1.8 6 -0.4
v 1.9 6 -0.4
v 2 6 -0.4
v 2.1 6 -0.4
v 2.2 6 -0.4
v 2.3 6 -0.4
v 2.4 6 -0.4
v 2.5 6 -0.4
v 1.4 6.1 -0.3
v 1.6 6.1 -0.3
v 1.7 6.1 -0.3
v 1.8 6.1 -0.3
v 1.9 6.1 -0.3
v 2 6.1 -0.3
v 2.1 6.1 -0.3
v 2.2 6.1 -0.3
v 2.3 6.1 -0.3
v 2.4 6.1 -0.3
v 1.7 6.1 -0.4
v 1.8 6.1 -0.4
v 1.9 6.1 -0.4
v 2 6.1 -0.4
v 2.1 6.1 -0.4
v 2.2 6.1 -0.4
v 2.3 6.1 -0.4
v 2.4 6.1 -0.4
v 1.4 6.1 -0.6
v 1.6 6.1 -0.6
v 2.5 6.3 -0.2
v 2.9 6.3 -0.2
v 2.5 6.3 -0.3
v 2.9 6.3 -0.3
v 2.6 6.6 -0.2
v 2.8 6.6 -0.2
v 2.6 6.6 -0.3
v 2.8 6.6 -0.3
v 1.3 8 -0.3
v 2.8 8 -0.3
v 1.3 8 -0.6
v 2.8 8 -0.6
v 1.3 2.3 -0.3
v 2.8 2.3 -0.3
v 1.3 2.3 -0.6
v 2.8 2.3 -0.6
v 1 5 -0.3
v 3.1 5 -0.3
v 1 5 -0.6
v 3.1 5 -0.6
v 1.4 5.9 -0.3
v 1.6 5.9 -0.3
v 1.8 5.9 -0.3
v 1.9 5.9 -0.3
v 2 5.9 -0.3
v 2.1 5.9 -0.3
v 2.2 5.9 -0.3
v 2.3 5.9 -0.3
v 2.4 5.9 -0.3
v 2.5 5.9 -0.3
v 1.8 5.9 -0.4
v 1.9 5.9 -0.4
v 2 5.9 -0.4
v 2.1 5.9 -0.4
v 2.2 5.9 -0.4
v 2.3 5.9 -0.4
v 2.4 5.9 -0.4
v 2.5 5.9 -0.4
v 1.4 5.9 -0.6
v 1.6 5.9 -0.6
v 1.7 6 -0.3
v 1.8 6 -0.3
v 1.9 6 -0.3
v 2 6 -0.3
v 2.1 6 -0.3
v 2.2 6 -0.3
v 2.3 6 -0.3
v 2.4 6 -0.3
v 1.7 6 -0.4
v 1.8 6 -0.4
v 1.9 6 -0.4
v 2 6 -0.4
v 2.1 6 -0.4
v 2.2 6 -0.4
v 2.3 6 -0.4
v 2.4 6 -0.4
v 2.6 6.4 -0.2
v 2.8 6.4 -0.2
v 2.6 6.4 -0.3
v 2.8 6.4 -0.3
v 2.5 6.7 -0.2
v 2.9 6.7 -0.2
v 2.5 6.7 -0.3
v 2.9 6.7 -0.3
v 1.3 6.8 -0.3
v 2.8 6.8 -0.3
v 1.3 6.8 -0.6
v 2.8 6.8 -0.6
v 1 8.3 -0.3
v 3.1 8.3 -0.3
v 1 8.3 -3.6
v 3.1 8.3 -3.6

# faces
f 3/7/1 2/7/1 1/7/1
f 4/7/1 2/7/1 3/7/1
f 6/7/1 2/7/1 4/7/1
f 7/7/1 6/7/1 5/7/1
f 8/7/1 2/7/1 6/7/1
f 8/7/1 6/7/1 7/7/1
f 11/7/1 10/7/1 9/7/1
f 12/7/1 10/7/1 11/7/1
f 15/7/1 14/7/1 13/7/1
f 16/7/1 14/7/1 15/7/1
f 19/7/1 18/7/1 17/7/1
f 20/7/1 18/7/1 19/7/1
f 23/7/1 22/7/1 21/7/1
f 24/7/1 22/7/1 23/7/1
f 27/7/1 26/7/1 25/7/1
f 28/7/1 26/7/1 27/7/1
f 31/7/1 30/7/1 29/7/1
f 32/7/1 30/7/1 31/7/1
f 35/7/1 34/7/1 33/7/1
f 36/7/1 34/7/1 35/7/1
f 39/7/1 38/7/1 37/7/1
f 40/7/1 38/7/1 39/7/1
f 43/7/1 42/7/1 41/7/1
f 44/7/1 42/7/1 43/7/1
f 47/10/1 46/10/1 45/10/1
f 48/10/1 46/10/1 47/10/1
f 51/7/1 50/7/1 49/7/1
f 52/7/1 50/7/1 51/7/1
f 55/10/1 54/10/1 53/10/1
f 56/10/1 54/10/1 55/10/1
f 59/7/1 58/7/1 57/7/1
f 60/7/1 58/7/1 59/7/1
f 61/7/2 62/7/2 63/7/2
f 63/7/2 62/7/2 64/7/2
f 65/7/2 66/7/2 67/7/2
f 67/7/2 66/7/2 68/7/2
f 69/7/2 70/7/2 71/7/2
f 71/7/2 70/7/2 72/7/2
f 73/7/2 74/7/2 75/7/2
f 75/7/2 74/7/2 76/7/2
f 77/7/2 78/7/2 79/7/2
f 79/7/2 78/7/2 80/7/2
f 81/7/2 82/7/2 83/7/2
f 83/7/2 82/7/2 84/7/2
f 85/7/2 86/7/2 87/7/2
f 87/7/2 86/7/2 88/7/2
f 89/7/2 90/7/2 91/7/2
f 91/7/2 90/7/2 92/7/2
f 93/7/2 94/7/2 95/7/2
f 95/7/2 94/7/2 96/7/2
f 97/7/2 98/7/2 99/7/2
f 99/7/2 98/7/2 100/7/2
f 101/7/2 102/7/2 103/7/2
f 103/7/2 102/7/2 104/7/2
f 105/10/2 106/10/2 107/10/2
f 107/10/2 106/10/2 108/10/2
f 109/10/2 110/10/2 111/10/2
f 111/10/2 110/10/2 112/10/2
f 113/7/2 114/7/2 115/7/2
f 115/7/2 114/7/2 116/7/2
f 116/7/2 114/7/2 118/7/2
f 117/7/2 118/7/2 119/7/2
f 118/7/2 114/7/2 120/7/2
f 119/7/2 118/7/2 120/7/2
f 123/10/3 122/10/3 121/10/3
f 124/10/3 122/10/3 123/10/3
f 125/10/3 123/10/3 121/10/3
f 126/10/3 122/10/3 124/10/3
f 127/10/3 125/10/3 121/10/3
f 127/10/3 126/10/3 125/10/3
f 128/10/3 122/10/3 126/10/3
f 128/10/3 126/10/3 127/10/3
f 133/7/3 130/7/3 129/7/3
f 134/7/3 130/7/3 133/7/3
f 135/7/3 132/7/3 131/7/3
f 136/7/3 132/7/3 135/7/3
f 137/7/3 135/7/3 131/7/3
f 138/7/3 135/7/3 137/7/3
f 139/7/3 137/7/3 131/7/3
f 140/7/3 135/7/3 138/7/3
f 141/7/3 140/7/3 139/7/3
f 142/7/3 135/7/3 140/7/3
f 142/7/3 140/7/3 141/7/3
f 143/7/3 139/7/3 131/7/3
f 143/7/3 141/7/3 139/7/3
f 144/7/3 141/7/3 143/7/3
f 145/7/3 135/7/3 142/7/3
f 146/7/3 143/7/3 131/7/3
f 147/7/3 145/7/3 144/7/3
f 148/7/3 135/7/3 145/7/3
f 148/7/3 145/7/3 147/7/3
f 149/7/3 146/7/3 131/7/3
f 149/7/3 147/7/3 146/7/3
f 150/7/3 147/7/3 149/7/3
f 151/7/3 135/7/3 148/7/3
f 152/7/3 149/7/3 131/7/3
f 153/7/3 151/7/3 150/7/3
f 154/7/3 135/7/3 151/7/3
f 154/7/3 151/7/3 153/7/3
f 155/7/3 152/7/3 131/7/3
f 155/7/3 153/7/3 152/7/3
f 156/7/3 153/7/3 155/7/3
f 157/7/3 135/7/3 154/7/3
f 158/7/3 155/7/3 131/7/3
f 159/7/3 157/7/3 156/7/3
f 160/7/3 135/7/3 157/7/3
f 160/7/3 157/7/3 159/7/3
f 161/7/3 158/7/3 131/7/3
f 161/7/3 159/7/3 158/7/3
f 162/7/3 159/7/3 161/7/3
f 163/7/3 135/7/3 160/7/3
f 164/7/3 161/7/3 131/7/3
f 165/7/3 163/7/3 162/7/3
f 166/7/3 135/7/3 163/7/3
f 166/7/3 163/7/3 165/7/3
f 167/7/3 135/7/3 166/7/3
f 170/7/3 133/7/3 129/7/3
f 171/7/3 130/7/3 134/7/3
f 172/5/3 169/5/3 168/5/3
f 173/5/3 169/5/3 172/5/3
f 174/7/3 135/7/3 167/7/3
f 175/7/3 132/7/3 136/7/3
f 176/7/3 165/7/3 164/7/3
f 176/7/3 166/7/3 165/7/3
f 177/7/3 174/7/3 167/7/3
f 177/7/3 175/7/3 174/7/3
f 178/7/3 170/7/3 129/7/3
f 178/7/3 171/7/3 170/7/3
f 179/7/3 130/7/3 171/7/3
f 179/7/3 171/7/3 178/7/3
f 180/7/3 177/7/3 176/7/3
f 180/7/3 176/7/3 164/7/3
f 180/7/3 164/7/3 131/7/3
f 181/7/3 175/7/3 177/7/3
f 181/7/3 177/7/3 180/7/3
f 181/7/3 132/7/3 175/7/3
f 185/3/3 183/3/3 182/3/3
f 186/3/3 183/3/3 185/3/3
f 187/3/3 185/3/3 184/3/3
f 188/3/3 185/3/3 187/3/3
f 191/5/3 189/5/3 188/5/3
f 192/5/3 189/5/3 191/5/3
f 193/5/3 191/5/3 190/5/3
f 194/5/3 191/5/3 193/5/3
f 197/5/3 195/5/3 194/5/3
f 198/5/3 195/5/3 197/5/3
f 199/3/3 197/3/3 196/3/3
f 200/3/3 197/3/3 199/3/3
f 203/3/3 201/3/3 200/3/3
f 204/3/3 201/3/3 203/3/3
f 205/3/3 203/3/3 202/3/3
f 206/3/3 203/3/3 205/3/3
f 215/1/3 212/1/3 211/1/3
f 216/1/3 212/1/3 215/1/3
f 217/1/3 210/1/3 209/1/3
f 218/1/3 210/1/3 217/1/3
f 219/1/3 210/1/3 218/1/3
f 220/1/3 210/1/3 219/1/3
f 221/1/3 210/1/3 220/1/3
f 222/1/3 210/1/3 221/1/3
f 223/4/3 214/4/3 213/4/3
f 224/4/3 214/4/3 223/4/3
f 225/9/3 216/9/3 215/9/3
f 226/1/3 212/1/3 216/1/3
f 226/9/3 216/9/3 225/9/3
f 227/1/3 219/1/3 218/1/3
f 227/6/3 220/6/3 219/6/3
f 228/1/3 221/1/3 220/1/3
f 228/6/3 220/6/3 227/6/3
f 229/1/3 215/1/3 211/1/3
f 230/9/3 225/9/3 215/9/3
f 230/1/3 215/1/3 229/1/3
f 231/1/3 226/1/3 225/1/3
f 231/9/3 225/9/3 230/9/3
f 232/1/3 212/1/3 226/1/3
f 232/1/3 226/1/3 231/1/3
f 233/1/3 227/1/3 218/1/3
f 233/1/3 228/1/3 227/1/3
f 234/1/3 221/1/3 228/1/3
f 234/1/3 228/1/3 233/1/3
f 235/1/3 229/1/3 211/1/3
f 235/9/3 231/9/3 230/9/3
f 235/9/3 230/9/3 229/9/3
f 235/9/3 232/9/3 231/9/3
f 236/1/3 212/1/3 232/1/3
f 236/9/3 232/9/3 235/9/3
f 237/1/3 235/1/3 211/1/3
f 237/1/3 236/1/3 235/1/3
f 238/1/3 212/1/3 236/1/3
f 238/1/3 236/1/3 237/1/3
f 239/1/3 233/1/3 218/1/3
f 239/6/3 234/6/3 233/6/3
f 240/1/3 221/1/3 234/1/3
f 240/6/3 234/6/3 239/6/3
f 241/9/3 238/9/3 237/9/3
f 242/9/3 238/9/3 241/9/3
f 243/1/3 239/1/3 218/1/3
f 243/1/3 240/1/3 239/1/3
f 244/1/3 221/1/3 240/1/3
f 244/1/3 240/1/3 243/1/3
f 245/1/3 242/1/3 241/1/3
f 245/9/3 241/9/3 237/9/3
f 246/9/3 238/9/3 242/9/3
f 246/1/3 242/1/3 245/1/3
f 247/1/3 243/1/3 218/1/3
f 247/6/3 244/6/3 243/6/3
f 248/1/3 221/1/3 244/1/3
f 248/6/3 244/6/3 247/6/3
f 249/1/3 221/1/3 248/1/3
f 250/1/3 221/1/3 249/1/3
f 251/8/3 222/8/3 221/8/3
f 251/1/3 221/1/3 250/1/3
f 252/1/3 210/1/3 222/1/3
f 252/8/3 222/8/3 251/8/3
f 253/9/3 245/9/3 237/9/3
f 253/1/3 237/1/3 211/1/3
f 253/9/3 246/9/3 245/9/3
f 254/1/3 212/1/3 238/1/3
f 254/9/3 246/9/3 253/9/3
f 254/9/3 238/9/3 246/9/3
f 255/1/3 248/1/3 247/1/3
f 255/1/3 247/1/3 218/1/3
f 255/1/3 249/1/3 248/1/3
f 256/1/3 249/1/3 255/1/3
f 257/1/3 254/1/3 253/1/3
f 258/1/3 212/1/3 254/1/3
f 258/1/3 254/1/3 257/1/3
f 259/1/3 255/1/3 218/1/3
f 259/6/3 256/6/3 255/6/3
f 260/1/3 249/1/3 256/1/3
f 260/6/3 256/6/3 259/6/3
f 261/1/3 251/1/3 250/1/3
f 261/1/3 252/1/3 251/1/3
f 262/1/3 210/1/3 252/1/3
f 262/1/3 252/1/3 261/1/3
f 263/9/3 258/9/3 257/9/3
f 264/1/3 212/1/3 258/1/3
f 264/9/3 258/9/3 263/9/3
f 265/1/3 217/1/3 209/1/3
f 265/8/3 218/8/3 217/8/3
f 266/1/3 260/1/3 259/1/3
f 266/8/3 218/8/3 265/8/3
f 266/1/3 259/1/3 218/1/3
f 267/1/3 249/1/3 260/1/3
f 267/1/3 260/1/3 266/1/3
f 267/8/3 250/8/3 249/8/3
f 268/1/3 261/1/3 250/1/3
f 268/8/3 250/8/3 267/8/3
f 269/5/3 262/5/3 261/5/3
f 269/1/3 261/1/3 268/1/3
f 270/1/3 210/1/3 262/1/3
f 270/5/3 262/5/3 269/5/3
f 271/1/3 253/1/3 211/1/3
f 271/1/3 257/1/3 253/1/3
f 272/9/3 263/9/3 257/9/3
f 272/1/3 257/1/3 271/1/3
f 273/1/3 264/1/3 263/1/3
f 273/9/3 263/9/3 272/9/3
f 274/1/3 212/1/3 264/1/3
f 274/1/3 264/1/3 273/1/3
f 275/9/3 273/9/3 272/9/3
f 275/9/3 272/9/3 271/9/3
f 275/9/3 274/9/3 273/9/3
f 275/1/3 271/1/3 211/1/3
f 276/1/3 212/1/3 274/1/3
f 276/9/3 274/9/3 275/9/3
f 277/1/3 267/1/3 266/1/3
f 277/1/3 266/1/3 265/1/3
f 277/1/3 270/1/3 269/1/3
f 277/1/3 265/1/3 209/1/3
f 277/1/3 268/1/3 267/1/3
f 277/1/3 269/1/3 268/1/3
f 278/1/3 210/1/3 270/1/3
f 278/1/3 270/1/3 277/1/3
f 279/1/3 276/1/3 275/1/3
f 279/1/3 275/1/3 211/1/3
f 280/1/3 212/1/3 276/1/3
f 280/1/3 276/1/3 279/1/3
f 281/7/3 208/7/3 207/7/3
f 282/7/3 208/7/3 281/7/3
f 283/7/4 284/7/4 285/7/4
f 285/7/4 284/7/4 286/7/4
f 289/7/5 288/7/5 287/7/5
f 290/7/5 288/7/5 289/7/5
f 293/7/5 292/7/5 291/7/5
f 294/7/5 292/7/5 293/7/5
f 297/7/5 296/7/5 295/7/5
f 298/7/5 296/7/5 297/7/5
f 307/7/5 300/7/5 299/7/5
f 308/7/5 300/7/5 307/7/5
f 309/7/5 302/7/5 301/7/5
f 310/7/5 302/7/5 309/7/5
f 311/7/5 304/7/5 303/7/5
f 312/7/5 304/7/5 311/7/5
f 313/7/5 306/7/5 305/7/5
f 314/7/5 306/7/5 313/7/5
f 325/7/5 318/7/5 317/7/5
f 326/7/5 318/7/5 325/7/5
f 327/7/5 320/7/5 319/7/5
f 328/7/5 320/7/5 327/7/5
f 329/7/5 322/7/5 321/7/5
f 330/7/5 322/7/5 329/7/5
f 331/7/5 324/7/5 323/7/5
f 332/7/5 324/7/5 331/7/5
f 333/7/5 316/7/5 315/7/5
f 334/7/5 316/7/5 333/7/5
f 337/10/5 336/10/5 335/10/5
f 338/10/5 336/10/5 337/10/5
f 341/10/5 340/10/5 339/10/5
f 342/10/5 340/10/5 341/10/5
f 345/7/5 344/7/5 343/7/5
f 346/7/5 344/7/5 345/7/5
f 347/7/6 348/7/6 349/7/6
f 349/7/6 348/7/6 350/7/6
f 351/7/6 352/7/6 353/7/6
f 353/7/6 352/7/6 354/7/6
f 357/7/6 358/7/6 365/7/6
f 365/7/6 358/7/6 366/7/6
f 359/7/6 360/7/6 367/7/6
f 367/7/6 360/7/6 368/7/6
f 361/7/6 362/7/6 369/7/6
f 369/7/6 362/7/6 370/7/6
f 363/7/6 364/7/6 371/7/6
f 371/7/6 364/7/6 372/7/6
f 355/7/6 356/7/6 373/7/6
f 373/7/6 356/7/6 374/7/6
f 375/7/6 376/7/6 383/7/6
f 383/7/6 376/7/6 384/7/6
f 377/7/6 378/7/6 385/7/6
f 385/7/6 378/7/6 386/7/6
f 379/7/6 380/7/6 387/7/6
f 387/7/6 380/7/6 388/7/6
f 381/7/6 382/7/6 389/7/6
f 389/7/6 382/7/6 390/7/6
f 391/10/6 392/10/6 393/10/6
f 393/10/6 392/10/6 394/10/6
f 395/10/6 396/10/6 397/10/6
f 397/10/6 396/10/6 398/10/6
f 399/7/6 400/7/6 401/7/6
f 401/7/6 400/7/6 402/7/6
f 403/7/6 404/7/6 405/7/6
f 405/7/6 404/7/6 406/7/6
