# MagicaVoxel @ Ephtracy

# group
o 

# material
mtllib 1pcError.mtl
usemtl palette

# normals
vn -1 0 0
vn 1 0 0
vn 0 0 1
vn 0 0 -1
vn 0 -1 0
vn 0 1 0

# texcoords
vt 0.431641 0.5
vt 0.498047 0.5
vt 0.611328 0.5
vt 0.728516 0.5
vt 0.841797 0.5
vt 0.958984 0.5
vt 0.970703 0.5
vt 0.974609 0.5
vt 0.978516 0.5
vt 0.982422 0.5

# verts
v 0.6 2.8 -1
v 0.6 2.8 -3.4
v 0.6 5.2 -1
v 0.6 5.2 -3.4
v 0.8 3 -3.4
v 0.8 3 -3.5
v 0.8 4.9 -3.4
v 0.8 4.9 -3.5
v 0.8 5.2 -1.6
v 0.8 5.2 -3.4
v 0.8 5.4 -1.6
v 0.8 5.4 -3.4
v 1.2 3 -3.4
v 1.2 3 -3.5
v 1.2 4.6 -1.2
v 1.2 4.6 -1.4
v 1.2 4.7 -1.2
v 1.2 4.8 -1.2
v 1.2 4.8 -1.4
v 1.2 4.9 -3.4
v 1.2 4.9 -3.5
v 1.4 4.2 -1.2
v 1.4 4.2 -1.4
v 1.4 4.4 -1.2
v 1.4 4.4 -1.4
v 1.5 3 -3.4
v 1.5 3 -3.5
v 1.5 4.9 -3.4
v 1.5 4.9 -3.5
v 1.6 4.6 -1.2
v 1.6 4.6 -1.4
v 1.6 4.7 -1.2
v 1.6 4.8 -1.2
v 1.6 4.8 -1.4
v 1.8 3.8 -1.2
v 1.8 3.8 -1.4
v 1.8 4 -1.2
v 1.8 4 -1.4
v 1.8 4.2 -1.2
v 1.8 4.2 -1.4
v 1.8 4.6 -1.2
v 1.8 4.6 -1.4
v 2 3 -3.4
v 2 3 -3.5
v 2 4.6 -1.2
v 2 4.6 -1.4
v 2 4.7 -1.2
v 2 4.8 -1.2
v 2 4.8 -1.4
v 2 4.9 -3.4
v 2 4.9 -3.5
v 2.2 4.4 -1.2
v 2.2 4.4 -1.4
v 2.2 4.6 -1.2
v 2.2 4.6 -1.4
v 2.4 3 -3.4
v 2.4 3 -3.5
v 2.4 3.8 -1.2
v 2.4 3.8 -1.4
v 2.4 4 -1.2
v 2.4 4 -1.4
v 2.4 4.9 -3.4
v 2.4 4.9 -3.5
v 2.8 3 -3.4
v 2.8 3 -3.5
v 2.8 4.9 -3.4
v 2.8 4.9 -3.5
v 3 3.8 -1
v 3 3.8 -1.1
v 3 5 -1
v 3 5 -1.1
v 0.8 3.8 -1
v 0.8 3.8 -1.1
v 0.8 5 -1
v 0.8 5 -1.1
v 1 4.6 -1.2
v 1 4.6 -1.4
v 1 4.7 -1.2
v 1 4.8 -1.2
v 1 4.8 -1.4
v 1.1 3 -3.4
v 1.1 3 -3.5
v 1.1 4.9 -3.4
v 1.1 4.9 -3.5
v 1.2 4.2 -1.2
v 1.2 4.2 -1.4
v 1.2 4.6 -1.2
v 1.2 4.6 -1.4
v 1.3 3 -3.4
v 1.3 3 -3.5
v 1.3 4.9 -3.4
v 1.3 4.9 -3.5
v 1.4 4.6 -1.2
v 1.4 4.6 -1.4
v 1.4 4.7 -1.2
v 1.4 4.8 -1.2
v 1.4 4.8 -1.4
v 1.6 3.8 -1.2
v 1.6 3.8 -1.4
v 1.6 4 -1.2
v 1.6 4 -1.4
v 1.6 4.2 -1.2
v 1.6 4.2 -1.4
v 1.6 4.4 -1.2
v 1.6 4.4 -1.4
v 1.8 3 -3.4
v 1.8 3 -3.5
v 1.8 4.6 -1.2
v 1.8 4.6 -1.4
v 1.8 4.7 -1.2
v 1.8 4.8 -1.2
v 1.8 4.8 -1.4
v 1.8 4.9 -3.4
v 1.8 4.9 -3.5
v 2 3.8 -1.2
v 2 3.8 -1.4
v 2 4 -1.2
v 2 4 -1.4
v 2 4.4 -1.2
v 2 4.4 -1.4
v 2 4.6 -1.2
v 2 4.6 -1.4
v 2.1 3 -3.4
v 2.1 3 -3.5
v 2.1 4.9 -3.4
v 2.1 4.9 -3.5
v 2.6 3 -3.4
v 2.6 3 -3.5
v 2.6 4.9 -3.4
v 2.6 4.9 -3.5
v 2.9 3 -3.4
v 2.9 3 -3.5
v 2.9 4.9 -3.4
v 2.9 4.9 -3.5
v 3 5.2 -1.6
v 3 5.2 -3.4
v 3 5.4 -1.6
v 3 5.4 -3.4
v 3.2 2.8 -1
v 3.2 2.8 -3.4
v 3.2 5.2 -1
v 3.2 5.2 -3.4
v 0.6 2.8 -1
v 0.6 5.2 -1
v 0.8 3.8 -1
v 0.8 5 -1
v 0.9 3.5 -1
v 0.9 3.6 -1
v 1 3.5 -1
v 1 3.6 -1
v 1.2 3.5 -1
v 1.2 3.6 -1
v 1.4 3.5 -1
v 1.4 3.6 -1
v 1.6 3.5 -1
v 1.6 3.6 -1
v 1.7 3.5 -1
v 1.7 3.6 -1
v 2.4 3.4 -1
v 2.4 3.6 -1
v 3 3.4 -1
v 3 3.6 -1
v 3 3.8 -1
v 3 5 -1
v 3.2 2.8 -1
v 3.2 5.2 -1
v 0.8 3.8 -1.1
v 0.8 5 -1.1
v 0.9 4 -1.1
v 0.9 4.8 -1.1
v 1 4.1 -1.1
v 1 4.4 -1.1
v 1 4.5 -1.1
v 1 4.7 -1.1
v 1.1 4.4 -1.1
v 1.1 4.5 -1.1
v 1.2 4 -1.1
v 1.2 4.1 -1.1
v 1.2 4.7 -1.1
v 1.2 4.8 -1.1
v 1.3 4 -1.1
v 1.3 4.8 -1.1
v 1.4 4 -1.1
v 1.4 4.3 -1.1
v 1.4 4.5 -1.1
v 1.4 4.7 -1.1
v 1.5 4 -1.1
v 1.5 4.3 -1.1
v 1.5 4.4 -1.1
v 1.5 4.5 -1.1
v 1.5 4.7 -1.1
v 1.5 4.8 -1.1
v 1.6 4 -1.1
v 1.6 4.3 -1.1
v 1.6 4.4 -1.1
v 1.6 4.7 -1.1
v 1.7 4 -1.1
v 1.7 4.8 -1.1
v 1.8 4 -1.1
v 1.8 4.3 -1.1
v 1.8 4.5 -1.1
v 1.8 4.7 -1.1
v 1.9 4 -1.1
v 1.9 4.3 -1.1
v 1.9 4.4 -1.1
v 1.9 4.5 -1.1
v 1.9 4.7 -1.1
v 1.9 4.8 -1.1
v 2 4 -1.1
v 2 4.3 -1.1
v 2 4.4 -1.1
v 2 4.7 -1.1
v 2.1 4.1 -1.1
v 2.1 4.7 -1.1
v 2.2 4 -1.1
v 2.2 4.1 -1.1
v 2.2 4.7 -1.1
v 2.2 4.8 -1.1
v 2.3 4 -1.1
v 2.3 4.1 -1.1
v 2.3 4.7 -1.1
v 2.3 4.8 -1.1
v 2.4 4.1 -1.1
v 2.4 4.7 -1.1
v 2.5 4 -1.1
v 2.5 4.8 -1.1
v 2.6 4 -1.1
v 2.6 4.3 -1.1
v 2.6 4.5 -1.1
v 2.6 4.7 -1.1
v 2.7 4 -1.1
v 2.7 4.3 -1.1
v 2.7 4.4 -1.1
v 2.7 4.5 -1.1
v 2.7 4.7 -1.1
v 2.7 4.8 -1.1
v 2.8 4 -1.1
v 2.8 4.3 -1.1
v 2.8 4.4 -1.1
v 2.8 4.7 -1.1
v 3 3.8 -1.1
v 3 5 -1.1
v 1 4.6 -1.4
v 1 4.8 -1.4
v 1.2 4.2 -1.4
v 1.2 4.6 -1.4
v 1.2 4.8 -1.4
v 1.4 4.2 -1.4
v 1.4 4.4 -1.4
v 1.4 4.6 -1.4
v 1.4 4.8 -1.4
v 1.6 3.8 -1.4
v 1.6 4 -1.4
v 1.6 4.2 -1.4
v 1.6 4.4 -1.4
v 1.6 4.6 -1.4
v 1.6 4.8 -1.4
v 1.8 3.8 -1.4
v 1.8 4 -1.4
v 1.8 4.2 -1.4
v 1.8 4.6 -1.4
v 1.8 4.8 -1.4
v 2 3.8 -1.4
v 2 4 -1.4
v 2 4.4 -1.4
v 2 4.6 -1.4
v 2 4.8 -1.4
v 2.2 4.4 -1.4
v 2.2 4.6 -1.4
v 2.4 3.8 -1.4
v 2.4 4 -1.4
v 0.8 5.2 -1.6
v 0.8 5.4 -1.6
v 3 5.2 -1.6
v 3 5.4 -1.6
v 1 4.6 -1.2
v 1 4.7 -1.2
v 1 4.8 -1.2
v 1.2 4.2 -1.2
v 1.2 4.6 -1.2
v 1.2 4.7 -1.2
v 1.2 4.8 -1.2
v 1.3 4.2 -1.2
v 1.3 4.6 -1.2
v 1.4 4.2 -1.2
v 1.4 4.4 -1.2
v 1.4 4.5 -1.2
v 1.4 4.6 -1.2
v 1.4 4.7 -1.2
v 1.4 4.8 -1.2
v 1.5 4.5 -1.2
v 1.5 4.7 -1.2
v 1.5 4.8 -1.2
v 1.6 3.8 -1.2
v 1.6 4 -1.2
v 1.6 4.2 -1.2
v 1.6 4.4 -1.2
v 1.6 4.6 -1.2
v 1.6 4.7 -1.2
v 1.6 4.8 -1.2
v 1.7 4.2 -1.2
v 1.7 4.6 -1.2
v 1.8 3.8 -1.2
v 1.8 4 -1.2
v 1.8 4.2 -1.2
v 1.8 4.6 -1.2
v 1.8 4.7 -1.2
v 1.8 4.8 -1.2
v 1.9 4.6 -1.2
v 1.9 4.7 -1.2
v 1.9 4.8 -1.2
v 2 3.8 -1.2
v 2 4 -1.2
v 2 4.4 -1.2
v 2 4.6 -1.2
v 2 4.7 -1.2
v 2 4.8 -1.2
v 2.1 4.4 -1.2
v 2.1 4.6 -1.2
v 2.2 4.4 -1.2
v 2.2 4.6 -1.2
v 2.4 3.8 -1.2
v 2.4 4 -1.2
v 0.6 2.8 -3.4
v 0.6 5.2 -3.4
v 0.8 3 -3.4
v 0.8 4.9 -3.4
v 0.8 5.2 -3.4
v 0.8 5.4 -3.4
v 1.1 3 -3.4
v 1.1 4.9 -3.4
v 1.2 3 -3.4
v 1.2 4.9 -3.4
v 1.3 3 -3.4
v 1.3 4.9 -3.4
v 1.5 3 -3.4
v 1.5 4.9 -3.4
v 1.8 3 -3.4
v 1.8 4.9 -3.4
v 2 3 -3.4
v 2 4.9 -3.4
v 2.1 3 -3.4
v 2.1 4.9 -3.4
v 2.4 3 -3.4
v 2.4 4.9 -3.4
v 2.6 3 -3.4
v 2.6 4.9 -3.4
v 2.8 3 -3.4
v 2.8 4.9 -3.4
v 2.9 3 -3.4
v 2.9 4.9 -3.4
v 3 5.2 -3.4
v 3 5.4 -3.4
v 3.2 2.8 -3.4
v 3.2 5.2 -3.4
v 0.8 3 -3.5
v 0.8 4.9 -3.5
v 1.1 3 -3.5
v 1.1 4.9 -3.5
v 1.2 3 -3.5
v 1.2 4.9 -3.5
v 1.3 3 -3.5
v 1.3 4.9 -3.5
v 1.5 3 -3.5
v 1.5 4.9 -3.5
v 1.8 3 -3.5
v 1.8 4.9 -3.5
v 2 3 -3.5
v 2 4.9 -3.5
v 2.1 3 -3.5
v 2.1 4.9 -3.5
v 2.4 3 -3.5
v 2.4 4.9 -3.5
v 2.6 3 -3.5
v 2.6 4.9 -3.5
v 2.8 3 -3.5
v 2.8 4.9 -3.5
v 2.9 3 -3.5
v 2.9 4.9 -3.5
v 0.6 2.8 -1
v 3.2 2.8 -1
v 0.7 2.8 -1.2
v 3 2.8 -1.2
v 0.7 2.8 -3.3
v 3 2.8 -3.3
v 0.6 2.8 -3.4
v 3.2 2.8 -3.4
v 0.8 3 -3.4
v 1.1 3 -3.4
v 1.2 3 -3.4
v 1.3 3 -3.4
v 1.5 3 -3.4
v 1.8 3 -3.4
v 2 3 -3.4
v 2.1 3 -3.4
v 2.4 3 -3.4
v 2.6 3 -3.4
v 2.8 3 -3.4
v 2.9 3 -3.4
v 0.8 3 -3.5
v 1.1 3 -3.5
v 1.2 3 -3.5
v 1.3 3 -3.5
v 1.5 3 -3.5
v 1.8 3 -3.5
v 2 3 -3.5
v 2.1 3 -3.5
v 2.4 3 -3.5
v 2.6 3 -3.5
v 2.8 3 -3.5
v 2.9 3 -3.5
v 1.6 4 -1.2
v 1.8 4 -1.2
v 2 4 -1.2
v 2.4 4 -1.2
v 1.6 4 -1.4
v 1.8 4 -1.4
v 2 4 -1.4
v 2.4 4 -1.4
v 1.2 4.6 -1.2
v 1.3 4.6 -1.2
v 1.4 4.6 -1.2
v 1.6 4.6 -1.2
v 1.7 4.6 -1.2
v 1.8 4.6 -1.2
v 2 4.6 -1.2
v 2.1 4.6 -1.2
v 2.2 4.6 -1.2
v 1.2 4.6 -1.4
v 1.4 4.6 -1.4
v 1.6 4.6 -1.4
v 1.8 4.6 -1.4
v 2 4.6 -1.4
v 2.2 4.6 -1.4
v 1 4.8 -1.2
v 1.2 4.8 -1.2
v 1.4 4.8 -1.2
v 1.5 4.8 -1.2
v 1.6 4.8 -1.2
v 1.8 4.8 -1.2
v 1.9 4.8 -1.2
v 2 4.8 -1.2
v 1 4.8 -1.4
v 1.2 4.8 -1.4
v 1.4 4.8 -1.4
v 1.6 4.8 -1.4
v 1.8 4.8 -1.4
v 2 4.8 -1.4
v 0.8 5 -1
v 3 5 -1
v 0.8 5 -1.1
v 3 5 -1.1
v 0.8 3.8 -1
v 3 3.8 -1
v 0.8 3.8 -1.1
v 3 3.8 -1.1
v 1.6 3.8 -1.2
v 1.8 3.8 -1.2
v 2 3.8 -1.2
v 2.4 3.8 -1.2
v 1.6 3.8 -1.4
v 1.8 3.8 -1.4
v 2 3.8 -1.4
v 2.4 3.8 -1.4
v 1.2 4.2 -1.2
v 1.3 4.2 -1.2
v 1.4 4.2 -1.2
v 1.6 4.2 -1.2
v 1.7 4.2 -1.2
v 1.8 4.2 -1.2
v 1.2 4.2 -1.4
v 1.4 4.2 -1.4
v 1.6 4.2 -1.4
v 1.8 4.2 -1.4
v 1.4 4.4 -1.2
v 1.6 4.4 -1.2
v 2 4.4 -1.2
v 2.1 4.4 -1.2
v 2.2 4.4 -1.2
v 1.4 4.4 -1.4
v 1.6 4.4 -1.4
v 2 4.4 -1.4
v 2.2 4.4 -1.4
v 1 4.6 -1.2
v 1.2 4.6 -1.2
v 1.8 4.6 -1.2
v 1.9 4.6 -1.2
v 2 4.6 -1.2
v 1 4.6 -1.4
v 1.2 4.6 -1.4
v 1.8 4.6 -1.4
v 2 4.6 -1.4
v 0.8 4.9 -3.4
v 1.1 4.9 -3.4
v 1.2 4.9 -3.4
v 1.3 4.9 -3.4
v 1.5 4.9 -3.4
v 1.8 4.9 -3.4
v 2 4.9 -3.4
v 2.1 4.9 -3.4
v 2.4 4.9 -3.4
v 2.6 4.9 -3.4
v 2.8 4.9 -3.4
v 2.9 4.9 -3.4
v 0.8 4.9 -3.5
v 1.1 4.9 -3.5
v 1.2 4.9 -3.5
v 1.3 4.9 -3.5
v 1.5 4.9 -3.5
v 1.8 4.9 -3.5
v 2 4.9 -3.5
v 2.1 4.9 -3.5
v 2.4 4.9 -3.5
v 2.6 4.9 -3.5
v 2.8 4.9 -3.5
v 2.9 4.9 -3.5
v 0.6 5.2 -1
v 3.2 5.2 -1
v 0.8 5.2 -1.6
v 3 5.2 -1.6
v 0.6 5.2 -3.4
v 0.8 5.2 -3.4
v 3 5.2 -3.4
v 3.2 5.2 -3.4
v 0.8 5.4 -1.6
v 3 5.4 -1.6
v 1 5.4 -1.8
v 1.2 5.4 -1.8
v 1.8 5.4 -1.8
v 2 5.4 -1.8
v 2.6 5.4 -1.8
v 2.8 5.4 -1.8
v 1.4 5.4 -2
v 1.6 5.4 -2
v 2.2 5.4 -2
v 2.4 5.4 -2
v 1 5.4 -3.2
v 1.2 5.4 -3.2
v 1.4 5.4 -3.2
v 1.6 5.4 -3.2
v 1.8 5.4 -3.2
v 2 5.4 -3.2
v 2.2 5.4 -3.2
v 2.4 5.4 -3.2
v 2.6 5.4 -3.2
v 2.8 5.4 -3.2
v 0.8 5.4 -3.4
v 3 5.4 -3.4

# faces
f 3/7/1 2/7/1 1/7/1
f 4/7/1 2/7/1 3/7/1
f 7/10/1 6/10/1 5/10/1
f 8/10/1 6/10/1 7/10/1
f 11/10/1 10/10/1 9/10/1
f 12/10/1 10/10/1 11/10/1
f 17/2/1 16/2/1 15/2/1
f 18/2/1 16/2/1 17/2/1
f 19/2/1 16/2/1 18/2/1
f 20/10/1 14/10/1 13/10/1
f 21/10/1 14/10/1 20/10/1
f 24/2/1 23/2/1 22/2/1
f 25/2/1 23/2/1 24/2/1
f 28/10/1 27/10/1 26/10/1
f 29/10/1 27/10/1 28/10/1
f 32/2/1 31/2/1 30/2/1
f 33/2/1 31/2/1 32/2/1
f 34/2/1 31/2/1 33/2/1
f 37/2/1 36/2/1 35/2/1
f 38/2/1 36/2/1 37/2/1
f 41/2/1 40/2/1 39/2/1
f 42/2/1 40/2/1 41/2/1
f 47/2/1 46/2/1 45/2/1
f 48/2/1 46/2/1 47/2/1
f 49/2/1 46/2/1 48/2/1
f 50/10/1 44/10/1 43/10/1
f 51/10/1 44/10/1 50/10/1
f 54/2/1 53/2/1 52/2/1
f 55/2/1 53/2/1 54/2/1
f 60/2/1 59/2/1 58/2/1
f 61/2/1 59/2/1 60/2/1
f 62/10/1 57/10/1 56/10/1
f 63/10/1 57/10/1 62/10/1
f 66/10/1 65/10/1 64/10/1
f 67/10/1 65/10/1 66/10/1
f 70/7/1 69/7/1 68/7/1
f 71/7/1 69/7/1 70/7/1
f 72/7/2 73/7/2 74/7/2
f 74/7/2 73/7/2 75/7/2
f 76/2/2 77/2/2 78/2/2
f 78/2/2 77/2/2 79/2/2
f 79/2/2 77/2/2 80/2/2
f 81/10/2 82/10/2 83/10/2
f 83/10/2 82/10/2 84/10/2
f 85/2/2 86/2/2 87/2/2
f 87/2/2 86/2/2 88/2/2
f 89/10/2 90/10/2 91/10/2
f 91/10/2 90/10/2 92/10/2
f 93/2/2 94/2/2 95/2/2
f 95/2/2 94/2/2 96/2/2
f 96/2/2 94/2/2 97/2/2
f 98/2/2 99/2/2 100/2/2
f 100/2/2 99/2/2 101/2/2
f 102/2/2 103/2/2 104/2/2
f 104/2/2 103/2/2 105/2/2
f 108/2/2 109/2/2 110/2/2
f 110/2/2 109/2/2 111/2/2
f 111/2/2 109/2/2 112/2/2
f 106/10/2 107/10/2 113/10/2
f 113/10/2 107/10/2 114/10/2
f 115/2/2 116/2/2 117/2/2
f 117/2/2 116/2/2 118/2/2
f 119/2/2 120/2/2 121/2/2
f 121/2/2 120/2/2 122/2/2
f 123/10/2 124/10/2 125/10/2
f 125/10/2 124/10/2 126/10/2
f 127/10/2 128/10/2 129/10/2
f 129/10/2 128/10/2 130/10/2
f 131/10/2 132/10/2 133/10/2
f 133/10/2 132/10/2 134/10/2
f 135/10/2 136/10/2 137/10/2
f 137/10/2 136/10/2 138/10/2
f 139/7/2 140/7/2 141/7/2
f 141/7/2 140/7/2 142/7/2
f 145/7/3 144/7/3 143/7/3
f 146/7/3 144/7/3 145/7/3
f 147/7/3 145/7/3 143/7/3
f 148/7/3 145/7/3 147/7/3
f 149/7/3 147/7/3 143/7/3
f 149/5/3 148/5/3 147/5/3
f 150/7/3 145/7/3 148/7/3
f 150/5/3 148/5/3 149/5/3
f 151/7/3 149/7/3 143/7/3
f 151/7/3 150/7/3 149/7/3
f 152/7/3 145/7/3 150/7/3
f 152/7/3 150/7/3 151/7/3
f 153/7/3 151/7/3 143/7/3
f 153/1/3 152/1/3 151/1/3
f 154/7/3 145/7/3 152/7/3
f 154/1/3 152/1/3 153/1/3
f 155/7/3 153/7/3 143/7/3
f 155/7/3 154/7/3 153/7/3
f 156/7/3 145/7/3 154/7/3
f 156/7/3 154/7/3 155/7/3
f 157/7/3 155/7/3 143/7/3
f 157/3/3 156/3/3 155/3/3
f 158/7/3 145/7/3 156/7/3
f 158/3/3 156/3/3 157/3/3
f 159/7/3 157/7/3 143/7/3
f 159/7/3 158/7/3 157/7/3
f 160/7/3 145/7/3 158/7/3
f 160/7/3 158/7/3 159/7/3
f 161/7/3 159/7/3 143/7/3
f 161/6/3 160/6/3 159/6/3
f 162/7/3 145/7/3 160/7/3
f 162/6/3 160/6/3 161/6/3
f 163/7/3 145/7/3 162/7/3
f 164/7/3 144/7/3 146/7/3
f 165/7/3 163/7/3 162/7/3
f 165/7/3 164/7/3 163/7/3
f 165/7/3 161/7/3 143/7/3
f 165/7/3 162/7/3 161/7/3
f 166/7/3 144/7/3 164/7/3
f 166/7/3 164/7/3 165/7/3
f 169/4/3 168/4/3 167/4/3
f 170/4/3 168/4/3 169/4/3
f 171/10/3 170/10/3 169/10/3
f 172/10/3 170/10/3 171/10/3
f 173/10/3 170/10/3 172/10/3
f 174/10/3 170/10/3 173/10/3
f 175/4/3 172/4/3 171/4/3
f 175/10/3 173/10/3 172/10/3
f 176/4/3 174/4/3 173/4/3
f 176/10/3 173/10/3 175/10/3
f 177/4/3 169/4/3 167/4/3
f 177/10/3 171/10/3 169/10/3
f 178/4/3 176/4/3 175/4/3
f 178/10/3 171/10/3 177/10/3
f 178/4/3 175/4/3 171/4/3
f 179/4/3 174/4/3 176/4/3
f 179/4/3 176/4/3 178/4/3
f 179/10/3 170/10/3 174/10/3
f 180/4/3 168/4/3 170/4/3
f 180/10/3 170/10/3 179/10/3
f 181/4/3 178/4/3 177/4/3
f 181/4/3 179/4/3 178/4/3
f 181/4/3 180/4/3 179/4/3
f 181/4/3 177/4/3 167/4/3
f 182/4/3 168/4/3 180/4/3
f 182/4/3 180/4/3 181/4/3
f 183/4/3 181/4/3 167/4/3
f 183/10/3 182/10/3 181/10/3
f 184/10/3 182/10/3 183/10/3
f 185/10/3 182/10/3 184/10/3
f 186/10/3 182/10/3 185/10/3
f 187/4/3 183/4/3 167/4/3
f 187/4/3 184/4/3 183/4/3
f 188/10/3 185/10/3 184/10/3
f 188/4/3 184/4/3 187/4/3
f 189/10/3 185/10/3 188/10/3
f 190/4/3 186/4/3 185/4/3
f 190/10/3 185/10/3 189/10/3
f 191/10/3 182/10/3 186/10/3
f 191/4/3 186/4/3 190/4/3
f 192/4/3 168/4/3 182/4/3
f 192/10/3 182/10/3 191/10/3
f 193/4/3 187/4/3 167/4/3
f 193/10/3 188/10/3 187/10/3
f 194/4/3 189/4/3 188/4/3
f 194/10/3 188/10/3 193/10/3
f 195/10/3 191/10/3 190/10/3
f 195/4/3 189/4/3 194/4/3
f 195/10/3 190/10/3 189/10/3
f 196/4/3 192/4/3 191/4/3
f 196/10/3 191/10/3 195/10/3
f 197/4/3 194/4/3 193/4/3
f 197/4/3 195/4/3 194/4/3
f 197/4/3 196/4/3 195/4/3
f 197/4/3 193/4/3 167/4/3
f 198/4/3 192/4/3 196/4/3
f 198/4/3 196/4/3 197/4/3
f 198/4/3 168/4/3 192/4/3
f 199/4/3 197/4/3 167/4/3
f 199/10/3 198/10/3 197/10/3
f 200/10/3 198/10/3 199/10/3
f 201/10/3 198/10/3 200/10/3
f 202/10/3 198/10/3 201/10/3
f 203/4/3 199/4/3 167/4/3
f 203/4/3 200/4/3 199/4/3
f 204/10/3 201/10/3 200/10/3
f 204/4/3 200/4/3 203/4/3
f 205/10/3 201/10/3 204/10/3
f 206/4/3 202/4/3 201/4/3
f 206/10/3 201/10/3 205/10/3
f 207/10/3 198/10/3 202/10/3
f 207/4/3 202/4/3 206/4/3
f 208/4/3 168/4/3 198/4/3
f 208/10/3 198/10/3 207/10/3
f 209/4/3 203/4/3 167/4/3
f 209/10/3 204/10/3 203/10/3
f 210/4/3 205/4/3 204/4/3
f 210/10/3 204/10/3 209/10/3
f 211/10/3 207/10/3 206/10/3
f 211/4/3 205/4/3 210/4/3
f 211/10/3 206/10/3 205/10/3
f 212/4/3 208/4/3 207/4/3
f 212/10/3 207/10/3 211/10/3
f 213/4/3 210/4/3 209/4/3
f 213/4/3 211/4/3 210/4/3
f 213/4/3 212/4/3 211/4/3
f 214/4/3 208/4/3 212/4/3
f 214/4/3 212/4/3 213/4/3
f 215/4/3 213/4/3 209/4/3
f 215/4/3 209/4/3 167/4/3
f 216/10/3 214/10/3 213/10/3
f 216/4/3 213/4/3 215/4/3
f 217/4/3 208/4/3 214/4/3
f 217/10/3 214/10/3 216/10/3
f 218/4/3 168/4/3 208/4/3
f 218/4/3 208/4/3 217/4/3
f 219/10/3 216/10/3 215/10/3
f 219/4/3 215/4/3 167/4/3
f 220/4/3 217/4/3 216/4/3
f 220/10/3 216/10/3 219/10/3
f 221/10/3 218/10/3 217/10/3
f 221/4/3 217/4/3 220/4/3
f 222/4/3 168/4/3 218/4/3
f 222/10/3 218/10/3 221/10/3
f 223/10/3 221/10/3 220/10/3
f 223/4/3 220/4/3 219/4/3
f 224/4/3 222/4/3 221/4/3
f 224/10/3 221/10/3 223/10/3
f 225/4/3 219/4/3 167/4/3
f 225/4/3 223/4/3 219/4/3
f 225/4/3 224/4/3 223/4/3
f 226/4/3 168/4/3 222/4/3
f 226/4/3 224/4/3 225/4/3
f 226/4/3 222/4/3 224/4/3
f 227/4/3 225/4/3 167/4/3
f 227/10/3 226/10/3 225/10/3
f 228/10/3 226/10/3 227/10/3
f 229/10/3 226/10/3 228/10/3
f 230/10/3 226/10/3 229/10/3
f 231/4/3 227/4/3 167/4/3
f 231/4/3 228/4/3 227/4/3
f 232/10/3 229/10/3 228/10/3
f 232/4/3 228/4/3 231/4/3
f 233/10/3 229/10/3 232/10/3
f 234/4/3 230/4/3 229/4/3
f 234/10/3 229/10/3 233/10/3
f 235/10/3 226/10/3 230/10/3
f 235/4/3 230/4/3 234/4/3
f 236/4/3 168/4/3 226/4/3
f 236/10/3 226/10/3 235/10/3
f 237/4/3 231/4/3 167/4/3
f 237/10/3 232/10/3 231/10/3
f 238/4/3 233/4/3 232/4/3
f 238/10/3 232/10/3 237/10/3
f 239/10/3 235/10/3 234/10/3
f 239/4/3 233/4/3 238/4/3
f 239/10/3 234/10/3 233/10/3
f 240/4/3 236/4/3 235/4/3
f 240/10/3 235/10/3 239/10/3
f 241/4/3 238/4/3 237/4/3
f 241/4/3 239/4/3 238/4/3
f 241/4/3 240/4/3 239/4/3
f 241/4/3 237/4/3 167/4/3
f 242/4/3 236/4/3 240/4/3
f 242/4/3 240/4/3 241/4/3
f 242/4/3 168/4/3 236/4/3
f 246/6/3 244/6/3 243/6/3
f 247/6/3 244/6/3 246/6/3
f 248/6/3 246/6/3 245/6/3
f 249/6/3 246/6/3 248/6/3
f 250/6/3 246/6/3 249/6/3
f 255/6/3 251/6/3 250/6/3
f 255/6/3 250/6/3 249/6/3
f 256/6/3 251/6/3 255/6/3
f 257/6/3 251/6/3 256/6/3
f 258/6/3 253/6/3 252/6/3
f 259/6/3 253/6/3 258/6/3
f 260/6/3 255/6/3 254/6/3
f 260/6/3 256/6/3 255/6/3
f 261/6/3 256/6/3 260/6/3
f 266/6/3 262/6/3 261/6/3
f 267/6/3 262/6/3 266/6/3
f 268/6/3 266/6/3 265/6/3
f 269/6/3 266/6/3 268/6/3
f 270/6/3 264/6/3 263/6/3
f 271/6/3 264/6/3 270/6/3
f 274/10/3 273/10/3 272/10/3
f 275/10/3 273/10/3 274/10/3
f 276/4/4 277/4/4 280/4/4
f 277/10/4 278/10/4 281/10/4
f 280/4/4 277/4/4 281/4/4
f 281/10/4 278/10/4 282/10/4
f 279/4/4 280/4/4 283/4/4
f 283/4/4 280/4/4 284/4/4
f 283/10/4 284/10/4 285/10/4
f 285/10/4 284/10/4 286/10/4
f 286/10/4 284/10/4 287/10/4
f 287/10/4 284/10/4 288/10/4
f 287/4/4 288/4/4 291/4/4
f 288/4/4 289/4/4 291/4/4
f 286/10/4 287/10/4 291/10/4
f 289/10/4 290/10/4 292/10/4
f 291/4/4 289/4/4 292/4/4
f 292/10/4 290/10/4 293/10/4
f 286/10/4 291/10/4 297/10/4
f 291/10/4 292/10/4 297/10/4
f 297/10/4 292/10/4 298/10/4
f 292/4/4 293/4/4 299/4/4
f 298/10/4 292/10/4 299/10/4
f 299/4/4 293/4/4 300/4/4
f 297/4/4 298/4/4 301/4/4
f 296/4/4 297/4/4 301/4/4
f 301/4/4 298/4/4 302/4/4
f 294/4/4 295/4/4 303/4/4
f 303/4/4 295/4/4 304/4/4
f 301/10/4 302/10/4 305/10/4
f 305/10/4 302/10/4 306/10/4
f 306/4/4 307/4/4 309/4/4
f 307/10/4 308/10/4 310/10/4
f 309/4/4 307/4/4 310/4/4
f 310/10/4 308/10/4 311/10/4
f 309/10/4 310/10/4 315/10/4
f 310/4/4 311/4/4 316/4/4
f 315/10/4 310/10/4 316/10/4
f 316/4/4 311/4/4 317/4/4
f 314/4/4 315/4/4 318/4/4
f 318/4/4 315/4/4 319/4/4
f 318/10/4 319/10/4 320/10/4
f 320/10/4 319/10/4 321/10/4
f 312/4/4 313/4/4 322/4/4
f 322/4/4 313/4/4 323/4/4
f 324/7/4 325/7/4 326/7/4
f 326/7/4 325/7/4 327/7/4
f 327/7/4 325/7/4 328/7/4
f 324/7/4 326/7/4 330/7/4
f 327/7/4 328/7/4 331/7/4
f 324/7/4 330/7/4 332/7/4
f 330/7/4 331/7/4 332/7/4
f 331/7/4 328/7/4 333/7/4
f 332/7/4 331/7/4 333/7/4
f 324/7/4 332/7/4 334/7/4
f 333/7/4 328/7/4 335/7/4
f 324/7/4 334/7/4 336/7/4
f 334/7/4 335/7/4 336/7/4
f 335/7/4 328/7/4 337/7/4
f 336/7/4 335/7/4 337/7/4
f 324/7/4 336/7/4 338/7/4
f 337/7/4 328/7/4 339/7/4
f 324/7/4 338/7/4 340/7/4
f 338/7/4 339/7/4 340/7/4
f 339/7/4 328/7/4 341/7/4
f 340/7/4 339/7/4 341/7/4
f 324/7/4 340/7/4 342/7/4
f 341/7/4 328/7/4 343/7/4
f 324/7/4 342/7/4 344/7/4
f 342/7/4 343/7/4 344/7/4
f 343/7/4 328/7/4 345/7/4
f 344/7/4 343/7/4 345/7/4
f 324/7/4 344/7/4 346/7/4
f 345/7/4 328/7/4 347/7/4
f 324/7/4 346/7/4 348/7/4
f 346/7/4 347/7/4 348/7/4
f 347/7/4 328/7/4 349/7/4
f 348/7/4 347/7/4 349/7/4
f 324/7/4 348/7/4 350/7/4
f 349/7/4 328/7/4 351/7/4
f 328/10/4 329/10/4 352/10/4
f 350/7/4 351/7/4 352/7/4
f 351/7/4 328/7/4 352/7/4
f 352/10/4 329/10/4 353/10/4
f 324/7/4 350/7/4 354/7/4
f 350/7/4 352/7/4 354/7/4
f 354/7/4 352/7/4 355/7/4
f 356/10/4 357/10/4 358/10/4
f 358/10/4 357/10/4 359/10/4
f 360/10/4 361/10/4 362/10/4
f 362/10/4 361/10/4 363/10/4
f 364/10/4 365/10/4 366/10/4
f 366/10/4 365/10/4 367/10/4
f 368/10/4 369/10/4 370/10/4
f 370/10/4 369/10/4 371/10/4
f 372/10/4 373/10/4 374/10/4
f 374/10/4 373/10/4 375/10/4
f 376/10/4 377/10/4 378/10/4
f 378/10/4 377/10/4 379/10/4
f 382/7/5 381/7/5 380/7/5
f 383/7/5 381/7/5 382/7/5
f 384/7/5 382/7/5 380/7/5
f 384/6/5 383/6/5 382/6/5
f 385/7/5 381/7/5 383/7/5
f 385/6/5 383/6/5 384/6/5
f 386/7/5 384/7/5 380/7/5
f 386/7/5 385/7/5 384/7/5
f 387/7/5 381/7/5 385/7/5
f 387/7/5 385/7/5 386/7/5
f 400/10/5 389/10/5 388/10/5
f 401/10/5 389/10/5 400/10/5
f 402/10/5 391/10/5 390/10/5
f 403/10/5 391/10/5 402/10/5
f 404/10/5 393/10/5 392/10/5
f 405/10/5 393/10/5 404/10/5
f 406/10/5 395/10/5 394/10/5
f 407/10/5 395/10/5 406/10/5
f 408/10/5 397/10/5 396/10/5
f 409/10/5 397/10/5 408/10/5
f 410/10/5 399/10/5 398/10/5
f 411/10/5 399/10/5 410/10/5
f 416/2/5 413/2/5 412/2/5
f 417/2/5 413/2/5 416/2/5
f 418/2/5 415/2/5 414/2/5
f 419/2/5 415/2/5 418/2/5
f 429/2/5 421/2/5 420/2/5
f 429/2/5 422/2/5 421/2/5
f 430/2/5 422/2/5 429/2/5
f 431/2/5 424/2/5 423/2/5
f 431/2/5 425/2/5 424/2/5
f 432/2/5 425/2/5 431/2/5
f 433/2/5 428/2/5 427/2/5
f 433/2/5 427/2/5 426/2/5
f 434/2/5 428/2/5 433/2/5
f 443/2/5 436/2/5 435/2/5
f 444/2/5 436/2/5 443/2/5
f 445/2/5 438/2/5 437/2/5
f 445/2/5 439/2/5 438/2/5
f 446/2/5 439/2/5 445/2/5
f 447/2/5 442/2/5 441/2/5
f 447/2/5 441/2/5 440/2/5
f 448/2/5 442/2/5 447/2/5
f 451/7/5 450/7/5 449/7/5
f 452/7/5 450/7/5 451/7/5
f 453/7/6 454/7/6 455/7/6
f 455/7/6 454/7/6 456/7/6
f 457/6/6 458/6/6 461/6/6
f 461/6/6 458/6/6 462/6/6
f 459/6/6 460/6/6 463/6/6
f 463/6/6 460/6/6 464/6/6
f 465/2/6 466/2/6 471/2/6
f 466/2/6 467/2/6 471/2/6
f 471/2/6 467/2/6 472/2/6
f 469/2/6 470/2/6 473/2/6
f 468/2/6 469/2/6 473/2/6
f 473/2/6 470/2/6 474/2/6
f 475/2/6 476/2/6 480/2/6
f 480/2/6 476/2/6 481/2/6
f 478/2/6 479/2/6 482/2/6
f 477/2/6 478/2/6 482/2/6
f 482/2/6 479/2/6 483/2/6
f 484/2/6 485/2/6 489/2/6
f 489/2/6 485/2/6 490/2/6
f 487/2/6 488/2/6 491/2/6
f 486/2/6 487/2/6 491/2/6
f 491/2/6 488/2/6 492/2/6
f 493/10/6 494/10/6 505/10/6
f 505/10/6 494/10/6 506/10/6
f 495/10/6 496/10/6 507/10/6
f 507/10/6 496/10/6 508/10/6
f 497/10/6 498/10/6 509/10/6
f 509/10/6 498/10/6 510/10/6
f 499/10/6 500/10/6 511/10/6
f 511/10/6 500/10/6 512/10/6
f 501/10/6 502/10/6 513/10/6
f 513/10/6 502/10/6 514/10/6
f 503/10/6 504/10/6 515/10/6
f 515/10/6 504/10/6 516/10/6
f 517/7/6 518/7/6 519/7/6
f 519/7/6 518/7/6 520/7/6
f 517/7/6 519/7/6 521/7/6
f 521/7/6 519/7/6 522/7/6
f 520/7/6 518/7/6 523/7/6
f 523/7/6 518/7/6 524/7/6
f 525/10/6 526/10/6 527/10/6
f 527/10/6 526/10/6 528/10/6
f 528/10/6 526/10/6 529/10/6
f 529/10/6 526/10/6 530/10/6
f 530/10/6 526/10/6 531/10/6
f 531/10/6 526/10/6 532/10/6
f 528/10/6 529/10/6 533/10/6
f 533/10/6 529/10/6 534/10/6
f 530/10/6 531/10/6 535/10/6
f 535/10/6 531/10/6 536/10/6
f 525/10/6 527/10/6 537/10/6
f 527/9/6 528/9/6 537/9/6
f 528/10/6 533/10/6 538/10/6
f 537/9/6 528/9/6 538/9/6
f 533/9/6 534/9/6 539/9/6
f 538/10/6 533/10/6 539/10/6
f 534/10/6 529/10/6 540/10/6
f 539/9/6 534/9/6 540/9/6
f 529/9/6 530/9/6 541/9/6
f 540/10/6 529/10/6 541/10/6
f 530/10/6 535/10/6 542/10/6
f 541/9/6 530/9/6 542/9/6
f 535/9/6 536/9/6 543/9/6
f 542/10/6 535/10/6 543/10/6
f 536/10/6 531/10/6 544/10/6
f 543/9/6 536/9/6 544/9/6
f 531/9/6 532/9/6 545/9/6
f 544/10/6 531/10/6 545/10/6
f 532/10/6 526/10/6 546/10/6
f 545/9/6 532/9/6 546/9/6
f 542/10/6 543/10/6 547/10/6
f 541/10/6 542/10/6 547/10/6
f 545/10/6 546/10/6 547/10/6
f 540/10/6 541/10/6 547/10/6
f 537/10/6 538/10/6 547/10/6
f 525/10/6 537/10/6 547/10/6
f 543/10/6 544/10/6 547/10/6
f 538/10/6 539/10/6 547/10/6
f 539/10/6 540/10/6 547/10/6
f 544/10/6 545/10/6 547/10/6
f 546/10/6 526/10/6 548/10/6
f 547/10/6 546/10/6 548/10/6
