# MagicaVoxel @ Ephtracy

# group
o 

# material
mtllib mainPc.mtl
usemtl palette

# normals
vn -1 0 0
vn 1 0 0
vn 0 0 1
vn 0 0 -1
vn 0 -1 0
vn 0 1 0

# texcoords
vt 0.00585938 0.5
vt 0.138672 0.5
vt 0.931641 0.5
vt 0.970703 0.5
vt 0.974609 0.5
vt 0.994141 0.5

# verts
v 0.9 2 -1
v 0.9 2 -2.2
v 0.9 7.2 -1
v 0.9 7.2 -2.2
v 1.1 4.7 -0.9
v 1.1 4.7 -1
v 1.1 5.1 -0.9
v 1.1 5.1 -1
v 1.2 4.6 -0.9
v 1.2 4.6 -1
v 1.2 4.7 -0.9
v 1.2 4.7 -1
v 1.2 5.1 -0.9
v 1.2 5.1 -1
v 1.2 5.2 -0.9
v 1.2 5.2 -1
v 1.3 3.6 -0.9
v 1.3 3.6 -1
v 1.3 4.2 -0.9
v 1.3 4.2 -1
v 1.4 3.5 -0.9
v 1.4 3.5 -1
v 1.4 3.6 -0.9
v 1.4 3.6 -1
v 1.4 4.2 -0.9
v 1.4 4.2 -1
v 1.4 4.3 -0.9
v 1.4 4.3 -1
v 1.5 3.4 -0.9
v 1.5 3.4 -1
v 1.5 3.5 -0.9
v 1.5 3.5 -1
v 1.5 4.3 -0.9
v 1.5 4.3 -1
v 1.5 4.4 -0.9
v 1.5 4.4 -1
v 1.5 4.8 -0.9
v 1.5 4.8 -1
v 1.5 5 -0.9
v 1.5 5 -1
v 1.6 3.3 -0.9
v 1.6 3.3 -1
v 1.6 3.4 -0.9
v 1.6 3.4 -1
v 1.6 4.4 -0.9
v 1.6 4.4 -1
v 1.6 4.5 -0.9
v 1.6 4.5 -1
v 2 3.8 -0.9
v 2 3.8 -1
v 2 4 -0.9
v 2 4 -1
v 2.1 4.7 -0.9
v 2.1 4.7 -1
v 2.1 5.1 -0.9
v 2.1 5.1 -1
v 2.2 4.6 -0.9
v 2.2 4.6 -1
v 2.2 4.7 -0.9
v 2.2 4.7 -1
v 2.2 5.1 -0.9
v 2.2 5.1 -1
v 2.2 5.2 -0.9
v 2.2 5.2 -1
v 2.5 4.8 -0.9
v 2.5 4.8 -1
v 2.5 5 -0.9
v 2.5 5 -1
v 2.8 5.5 -1
v 2.8 5.5 -1.1
v 2.8 7.1 -1
v 2.8 7.1 -1.1
v 1 5.5 -1
v 1 5.5 -1.1
v 1 7.1 -1
v 1 7.1 -1.1
v 1.3 4.8 -0.9
v 1.3 4.8 -1
v 1.3 5 -0.9
v 1.3 5 -1
v 1.6 4.6 -0.9
v 1.6 4.6 -1
v 1.6 4.7 -0.9
v 1.6 4.7 -1
v 1.6 5.1 -0.9
v 1.6 5.1 -1
v 1.6 5.2 -0.9
v 1.6 5.2 -1
v 1.7 4.7 -0.9
v 1.7 4.7 -1
v 1.7 5.1 -0.9
v 1.7 5.1 -1
v 1.8 3.8 -0.9
v 1.8 3.8 -1
v 1.8 4 -0.9
v 1.8 4 -1
v 2.2 3.3 -0.9
v 2.2 3.3 -1
v 2.2 3.4 -0.9
v 2.2 3.4 -1
v 2.2 4.4 -0.9
v 2.2 4.4 -1
v 2.2 4.5 -0.9
v 2.2 4.5 -1
v 2.3 3.4 -0.9
v 2.3 3.4 -1
v 2.3 3.5 -0.9
v 2.3 3.5 -1
v 2.3 4.3 -0.9
v 2.3 4.3 -1
v 2.3 4.4 -0.9
v 2.3 4.4 -1
v 2.3 4.8 -0.9
v 2.3 4.8 -1
v 2.3 5 -0.9
v 2.3 5 -1
v 2.4 3.5 -0.9
v 2.4 3.5 -1
v 2.4 3.6 -0.9
v 2.4 3.6 -1
v 2.4 4.2 -0.9
v 2.4 4.2 -1
v 2.4 4.3 -0.9
v 2.4 4.3 -1
v 2.5 3.6 -0.9
v 2.5 3.6 -1
v 2.5 4.2 -0.9
v 2.5 4.2 -1
v 2.6 4.6 -0.9
v 2.6 4.6 -1
v 2.6 4.7 -0.9
v 2.6 4.7 -1
v 2.6 5.1 -0.9
v 2.6 5.1 -1
v 2.6 5.2 -0.9
v 2.6 5.2 -1
v 2.7 4.7 -0.9
v 2.7 4.7 -1
v 2.7 5.1 -0.9
v 2.7 5.1 -1
v 2.9 2 -1
v 2.9 2 -2.2
v 2.9 7.2 -1
v 2.9 7.2 -2.2
v 1.1 4.7 -0.9
v 1.1 5.1 -0.9
v 1.2 4.6 -0.9
v 1.2 4.7 -0.9
v 1.2 5.1 -0.9
v 1.2 5.2 -0.9
v 1.3 3.6 -0.9
v 1.3 4.2 -0.9
v 1.3 4.8 -0.9
v 1.3 5 -0.9
v 1.4 3.5 -0.9
v 1.4 3.6 -0.9
v 1.4 4.2 -0.9
v 1.4 4.3 -0.9
v 1.5 3.4 -0.9
v 1.5 3.5 -0.9
v 1.5 4.3 -0.9
v 1.5 4.4 -0.9
v 1.5 4.8 -0.9
v 1.5 5 -0.9
v 1.6 3.3 -0.9
v 1.6 3.4 -0.9
v 1.6 4.4 -0.9
v 1.6 4.5 -0.9
v 1.6 4.6 -0.9
v 1.6 4.7 -0.9
v 1.6 5.1 -0.9
v 1.6 5.2 -0.9
v 1.7 4.7 -0.9
v 1.7 5.1 -0.9
v 1.8 3.8 -0.9
v 1.8 4 -0.9
v 2 3.8 -0.9
v 2 4 -0.9
v 2.1 4.7 -0.9
v 2.1 5.1 -0.9
v 2.2 3.3 -0.9
v 2.2 3.4 -0.9
v 2.2 4.4 -0.9
v 2.2 4.5 -0.9
v 2.2 4.6 -0.9
v 2.2 4.7 -0.9
v 2.2 5.1 -0.9
v 2.2 5.2 -0.9
v 2.3 3.4 -0.9
v 2.3 3.5 -0.9
v 2.3 4.3 -0.9
v 2.3 4.4 -0.9
v 2.3 4.8 -0.9
v 2.3 5 -0.9
v 2.4 3.5 -0.9
v 2.4 3.6 -0.9
v 2.4 4.2 -0.9
v 2.4 4.3 -0.9
v 2.5 3.6 -0.9
v 2.5 4.2 -0.9
v 2.5 4.8 -0.9
v 2.5 5 -0.9
v 2.6 4.6 -0.9
v 2.6 4.7 -0.9
v 2.6 5.1 -0.9
v 2.6 5.2 -0.9
v 2.7 4.7 -0.9
v 2.7 5.1 -0.9
v 0.9 2 -1
v 0.9 7.2 -1
v 1 5.5 -1
v 1 7.1 -1
v 1.1 4.7 -1
v 1.1 5.1 -1
v 1.2 4.6 -1
v 1.2 4.7 -1
v 1.2 5.1 -1
v 1.2 5.2 -1
v 1.3 2.8 -1
v 1.3 3.2 -1
v 1.3 3.6 -1
v 1.3 4.2 -1
v 1.3 4.4 -1
v 1.3 4.8 -1
v 1.3 5 -1
v 1.4 3.5 -1
v 1.4 3.6 -1
v 1.4 4.2 -1
v 1.4 4.3 -1
v 1.5 3.4 -1
v 1.5 3.5 -1
v 1.5 4.3 -1
v 1.5 4.4 -1
v 1.5 4.8 -1
v 1.5 5 -1
v 1.6 3.3 -1
v 1.6 3.4 -1
v 1.6 4.4 -1
v 1.6 4.5 -1
v 1.6 4.6 -1
v 1.6 4.7 -1
v 1.6 5.1 -1
v 1.6 5.2 -1
v 1.7 4.7 -1
v 1.7 5.1 -1
v 1.7 5.2 -1
v 1.8 3.8 -1
v 1.8 4 -1
v 2 3.8 -1
v 2 4 -1
v 2.1 4.7 -1
v 2.1 5.1 -1
v 2.1 5.2 -1
v 2.2 3.3 -1
v 2.2 3.4 -1
v 2.2 4.4 -1
v 2.2 4.5 -1
v 2.2 4.6 -1
v 2.2 4.7 -1
v 2.2 5.1 -1
v 2.2 5.2 -1
v 2.3 3.4 -1
v 2.3 3.5 -1
v 2.3 4.3 -1
v 2.3 4.4 -1
v 2.3 4.8 -1
v 2.3 5 -1
v 2.4 3.5 -1
v 2.4 3.6 -1
v 2.4 4.2 -1
v 2.4 4.3 -1
v 2.5 2.8 -1
v 2.5 3.2 -1
v 2.5 3.6 -1
v 2.5 4.2 -1
v 2.5 4.4 -1
v 2.5 4.8 -1
v 2.5 5 -1
v 2.6 4.6 -1
v 2.6 4.7 -1
v 2.6 5.1 -1
v 2.6 5.2 -1
v 2.7 4.7 -1
v 2.7 5.1 -1
v 2.8 5.5 -1
v 2.8 7.1 -1
v 2.9 2 -1
v 2.9 7.2 -1
v 1 5.5 -1.1
v 1 7.1 -1.1
v 1.1 6.3 -1.1
v 1.1 7 -1.1
v 1.2 5.6 -1.1
v 1.2 6.2 -1.1
v 1.2 6.4 -1.1
v 1.2 6.6 -1.1
v 1.2 6.7 -1.1
v 1.2 6.9 -1.1
v 1.3 5.6 -1.1
v 1.3 5.8 -1.1
v 1.3 5.9 -1.1
v 1.3 6.1 -1.1
v 1.3 6.4 -1.1
v 1.3 6.6 -1.1
v 1.3 6.7 -1.1
v 1.3 6.9 -1.1
v 1.4 5.7 -1.1
v 1.4 5.8 -1.1
v 1.4 6.3 -1.1
v 1.4 6.6 -1.1
v 1.4 6.7 -1.1
v 1.4 7 -1.1
v 1.5 5.6 -1.1
v 1.5 5.7 -1.1
v 1.5 5.9 -1.1
v 1.5 6.1 -1.1
v 1.5 6.2 -1.1
v 1.5 6.3 -1.1
v 1.5 7 -1.1
v 1.6 5.6 -1.1
v 1.6 5.7 -1.1
v 1.6 5.9 -1.1
v 1.6 6.1 -1.1
v 1.6 6.4 -1.1
v 1.6 6.9 -1.1
v 1.7 5.8 -1.1
v 1.7 5.9 -1.1
v 1.7 6.4 -1.1
v 1.7 6.9 -1.1
v 1.8 6.3 -1.1
v 1.8 7 -1.1
v 1.9 5.8 -1.1
v 1.9 5.9 -1.1
v 1.9 6.9 -1.1
v 1.9 7 -1.1
v 2 5.6 -1.1
v 2 6 -1.1
v 2 6.1 -1.1
v 2 6.2 -1.1
v 2 6.3 -1.1
v 2 6.9 -1.1
v 2.1 5.7 -1.1
v 2.1 5.9 -1.1
v 2.1 6.3 -1.1
v 2.1 6.9 -1.1
v 2.2 6 -1.1
v 2.2 6.1 -1.1
v 2.2 6.9 -1.1
v 2.2 7 -1.1
v 2.3 5.6 -1.1
v 2.3 5.7 -1.1
v 2.3 5.9 -1.1
v 2.3 6.2 -1.1
v 2.3 6.6 -1.1
v 2.3 6.7 -1.1
v 2.4 5.6 -1.1
v 2.4 6.2 -1.1
v 2.5 5.7 -1.1
v 2.5 6.1 -1.1
v 2.6 5.7 -1.1
v 2.6 6.1 -1.1
v 2.6 6.6 -1.1
v 2.6 6.7 -1.1
v 2.7 5.6 -1.1
v 2.7 6.2 -1.1
v 2.8 5.5 -1.1
v 2.8 7.1 -1.1
v 0.9 2 -2.2
v 0.9 7.2 -2.2
v 2.9 2 -2.2
v 2.9 7.2 -2.2
v 0.9 2 -1
v 2.9 2 -1
v 1.7 2 -1.4
v 2.8 2 -1.4
v 1.7 2 -2.1
v 2.8 2 -2.1
v 0.9 2 -2.2
v 2.9 2 -2.2
v 1.6 3.3 -0.9
v 2.2 3.3 -0.9
v 1.6 3.3 -1
v 2.2 3.3 -1
v 1.5 3.4 -0.9
v 1.6 3.4 -0.9
v 2.2 3.4 -0.9
v 2.3 3.4 -0.9
v 1.5 3.4 -1
v 1.6 3.4 -1
v 2.2 3.4 -1
v 2.3 3.4 -1
v 1.4 3.5 -0.9
v 1.5 3.5 -0.9
v 2.3 3.5 -0.9
v 2.4 3.5 -0.9
v 1.4 3.5 -1
v 1.5 3.5 -1
v 2.3 3.5 -1
v 2.4 3.5 -1
v 1.3 3.6 -0.9
v 1.4 3.6 -0.9
v 2.4 3.6 -0.9
v 2.5 3.6 -0.9
v 1.3 3.6 -1
v 1.4 3.6 -1
v 2.4 3.6 -1
v 2.5 3.6 -1
v 1.8 4 -0.9
v 2 4 -0.9
v 1.8 4 -1
v 2 4 -1
v 1.2 4.6 -0.9
v 1.6 4.6 -0.9
v 2.2 4.6 -0.9
v 2.6 4.6 -0.9
v 1.2 4.6 -1
v 1.6 4.6 -1
v 2.2 4.6 -1
v 2.6 4.6 -1
v 1.1 4.7 -0.9
v 1.2 4.7 -0.9
v 1.6 4.7 -0.9
v 1.7 4.7 -0.9
v 2.1 4.7 -0.9
v 2.2 4.7 -0.9
v 2.6 4.7 -0.9
v 2.7 4.7 -0.9
v 1.1 4.7 -1
v 1.2 4.7 -1
v 1.6 4.7 -1
v 1.7 4.7 -1
v 2.1 4.7 -1
v 2.2 4.7 -1
v 2.6 4.7 -1
v 2.7 4.7 -1
v 1.3 5 -0.9
v 1.5 5 -0.9
v 2.3 5 -0.9
v 2.5 5 -0.9
v 1.3 5 -1
v 1.5 5 -1
v 2.3 5 -1
v 2.5 5 -1
v 1 7.1 -1
v 2.8 7.1 -1
v 1 7.1 -1.1
v 2.8 7.1 -1.1
v 1.8 3.8 -0.9
v 2 3.8 -0.9
v 1.8 3.8 -1
v 2 3.8 -1
v 1.3 4.2 -0.9
v 1.4 4.2 -0.9
v 2.4 4.2 -0.9
v 2.5 4.2 -0.9
v 1.3 4.2 -1
v 1.4 4.2 -1
v 2.4 4.2 -1
v 2.5 4.2 -1
v 1.4 4.3 -0.9
v 1.5 4.3 -0.9
v 2.3 4.3 -0.9
v 2.4 4.3 -0.9
v 1.4 4.3 -1
v 1.5 4.3 -1
v 2.3 4.3 -1
v 2.4 4.3 -1
v 1.5 4.4 -0.9
v 1.6 4.4 -0.9
v 2.2 4.4 -0.9
v 2.3 4.4 -0.9
v 1.5 4.4 -1
v 1.6 4.4 -1
v 2.2 4.4 -1
v 2.3 4.4 -1
v 1.6 4.5 -0.9
v 2.2 4.5 -0.9
v 1.6 4.5 -1
v 2.2 4.5 -1
v 1.3 4.8 -0.9
v 1.5 4.8 -0.9
v 2.3 4.8 -0.9
v 2.5 4.8 -0.9
v 1.3 4.8 -1
v 1.5 4.8 -1
v 2.3 4.8 -1
v 2.5 4.8 -1
v 1.1 5.1 -0.9
v 1.2 5.1 -0.9
v 1.6 5.1 -0.9
v 1.7 5.1 -0.9
v 2.1 5.1 -0.9
v 2.2 5.1 -0.9
v 2.6 5.1 -0.9
v 2.7 5.1 -0.9
v 1.1 5.1 -1
v 1.2 5.1 -1
v 1.6 5.1 -1
v 1.7 5.1 -1
v 2.1 5.1 -1
v 2.2 5.1 -1
v 2.6 5.1 -1
v 2.7 5.1 -1
v 1.2 5.2 -0.9
v 1.6 5.2 -0.9
v 2.2 5.2 -0.9
v 2.6 5.2 -0.9
v 1.2 5.2 -1
v 1.6 5.2 -1
v 2.2 5.2 -1
v 2.6 5.2 -1
v 1 5.5 -1
v 2.8 5.5 -1
v 1 5.5 -1.1
v 2.8 5.5 -1.1
v 0.9 7.2 -1
v 2.9 7.2 -1
v 0.9 7.2 -2.2
v 2.9 7.2 -2.2

# faces
f 3/4/1 2/4/1 1/4/1
f 4/4/1 2/4/1 3/4/1
f 7/6/1 6/6/1 5/6/1
f 8/6/1 6/6/1 7/6/1
f 11/6/1 10/6/1 9/6/1
f 12/6/1 10/6/1 11/6/1
f 15/6/1 14/6/1 13/6/1
f 16/6/1 14/6/1 15/6/1
f 19/6/1 18/6/1 17/6/1
f 20/6/1 18/6/1 19/6/1
f 23/6/1 22/6/1 21/6/1
f 24/6/1 22/6/1 23/6/1
f 27/6/1 26/6/1 25/6/1
f 28/6/1 26/6/1 27/6/1
f 31/6/1 30/6/1 29/6/1
f 32/6/1 30/6/1 31/6/1
f 35/6/1 34/6/1 33/6/1
f 36/6/1 34/6/1 35/6/1
f 39/6/1 38/6/1 37/6/1
f 40/6/1 38/6/1 39/6/1
f 43/6/1 42/6/1 41/6/1
f 44/6/1 42/6/1 43/6/1
f 47/6/1 46/6/1 45/6/1
f 48/6/1 46/6/1 47/6/1
f 51/6/1 50/6/1 49/6/1
f 52/6/1 50/6/1 51/6/1
f 55/6/1 54/6/1 53/6/1
f 56/6/1 54/6/1 55/6/1
f 59/6/1 58/6/1 57/6/1
f 60/6/1 58/6/1 59/6/1
f 63/6/1 62/6/1 61/6/1
f 64/6/1 62/6/1 63/6/1
f 67/6/1 66/6/1 65/6/1
f 68/6/1 66/6/1 67/6/1
f 71/4/1 70/4/1 69/4/1
f 72/4/1 70/4/1 71/4/1
f 73/4/2 74/4/2 75/4/2
f 75/4/2 74/4/2 76/4/2
f 77/6/2 78/6/2 79/6/2
f 79/6/2 78/6/2 80/6/2
f 81/6/2 82/6/2 83/6/2
f 83/6/2 82/6/2 84/6/2
f 85/6/2 86/6/2 87/6/2
f 87/6/2 86/6/2 88/6/2
f 89/6/2 90/6/2 91/6/2
f 91/6/2 90/6/2 92/6/2
f 93/6/2 94/6/2 95/6/2
f 95/6/2 94/6/2 96/6/2
f 97/6/2 98/6/2 99/6/2
f 99/6/2 98/6/2 100/6/2
f 101/6/2 102/6/2 103/6/2
f 103/6/2 102/6/2 104/6/2
f 105/6/2 106/6/2 107/6/2
f 107/6/2 106/6/2 108/6/2
f 109/6/2 110/6/2 111/6/2
f 111/6/2 110/6/2 112/6/2
f 113/6/2 114/6/2 115/6/2
f 115/6/2 114/6/2 116/6/2
f 117/6/2 118/6/2 119/6/2
f 119/6/2 118/6/2 120/6/2
f 121/6/2 122/6/2 123/6/2
f 123/6/2 122/6/2 124/6/2
f 125/6/2 126/6/2 127/6/2
f 127/6/2 126/6/2 128/6/2
f 129/6/2 130/6/2 131/6/2
f 131/6/2 130/6/2 132/6/2
f 133/6/2 134/6/2 135/6/2
f 135/6/2 134/6/2 136/6/2
f 137/6/2 138/6/2 139/6/2
f 139/6/2 138/6/2 140/6/2
f 141/4/2 142/4/2 143/4/2
f 143/4/2 142/4/2 144/4/2
f 148/6/3 146/6/3 145/6/3
f 149/6/3 146/6/3 148/6/3
f 153/6/3 148/6/3 147/6/3
f 153/6/3 149/6/3 148/6/3
f 153/6/3 150/6/3 149/6/3
f 154/6/3 150/6/3 153/6/3
f 156/6/3 152/6/3 151/6/3
f 157/6/3 152/6/3 156/6/3
f 160/6/3 156/6/3 155/6/3
f 160/6/3 158/6/3 157/6/3
f 160/6/3 157/6/3 156/6/3
f 161/6/3 158/6/3 160/6/3
f 163/6/3 153/6/3 147/6/3
f 164/6/3 150/6/3 154/6/3
f 166/6/3 162/6/3 161/6/3
f 166/6/3 160/6/3 159/6/3
f 166/6/3 161/6/3 160/6/3
f 167/6/3 162/6/3 166/6/3
f 169/6/3 163/6/3 147/6/3
f 169/6/3 164/6/3 163/6/3
f 170/6/3 164/6/3 169/6/3
f 171/6/3 150/6/3 164/6/3
f 171/6/3 164/6/3 170/6/3
f 172/6/3 150/6/3 171/6/3
f 173/6/3 171/6/3 170/6/3
f 174/6/3 171/6/3 173/6/3
f 175/6/3 168/6/3 167/6/3
f 175/6/3 167/6/3 166/6/3
f 175/6/3 166/6/3 165/6/3
f 176/6/3 168/6/3 175/6/3
f 177/6/3 175/6/3 165/6/3
f 178/6/3 168/6/3 176/6/3
f 181/6/3 177/6/3 165/6/3
f 181/6/3 178/6/3 177/6/3
f 182/6/3 178/6/3 181/6/3
f 183/6/3 168/6/3 178/6/3
f 183/6/3 178/6/3 182/6/3
f 184/6/3 168/6/3 183/6/3
f 186/6/3 180/6/3 179/6/3
f 187/6/3 180/6/3 186/6/3
f 189/6/3 183/6/3 182/6/3
f 190/6/3 183/6/3 189/6/3
f 191/6/3 183/6/3 190/6/3
f 192/6/3 183/6/3 191/6/3
f 193/6/3 187/6/3 186/6/3
f 193/6/3 188/6/3 187/6/3
f 193/6/3 186/6/3 185/6/3
f 194/6/3 188/6/3 193/6/3
f 195/6/3 191/6/3 190/6/3
f 196/6/3 191/6/3 195/6/3
f 197/6/3 191/6/3 196/6/3
f 198/6/3 191/6/3 197/6/3
f 199/6/3 197/6/3 196/6/3
f 200/6/3 197/6/3 199/6/3
f 201/6/3 193/6/3 185/6/3
f 202/6/3 188/6/3 194/6/3
f 203/6/3 201/6/3 185/6/3
f 203/6/3 202/6/3 201/6/3
f 204/6/3 202/6/3 203/6/3
f 205/6/3 188/6/3 202/6/3
f 205/6/3 202/6/3 204/6/3
f 206/6/3 188/6/3 205/6/3
f 207/6/3 205/6/3 204/6/3
f 208/6/3 205/6/3 207/6/3
f 211/4/3 210/4/3 209/4/3
f 212/4/3 210/4/3 211/4/3
f 213/4/3 211/4/3 209/4/3
f 214/4/3 211/4/3 213/4/3
f 215/4/3 213/4/3 209/4/3
f 216/4/3 213/4/3 215/4/3
f 217/4/3 211/4/3 214/4/3
f 218/4/3 211/4/3 217/4/3
f 219/4/3 215/4/3 209/4/3
f 220/4/3 215/4/3 219/4/3
f 221/4/3 215/4/3 220/4/3
f 222/4/3 215/4/3 221/4/3
f 223/4/3 215/4/3 222/4/3
f 226/4/3 221/4/3 220/4/3
f 227/4/3 221/4/3 226/4/3
f 228/5/3 223/5/3 222/5/3
f 229/5/3 223/5/3 228/5/3
f 230/4/3 226/4/3 220/4/3
f 231/4/3 226/4/3 230/4/3
f 232/5/3 223/5/3 229/5/3
f 233/4/3 215/4/3 223/4/3
f 233/5/3 223/5/3 232/5/3
f 234/5/3 225/5/3 224/5/3
f 235/5/3 225/5/3 234/5/3
f 236/4/3 230/4/3 220/4/3
f 237/4/3 230/4/3 236/4/3
f 238/4/3 215/4/3 233/4/3
f 239/4/3 215/4/3 238/4/3
f 240/4/3 215/4/3 239/4/3
f 243/4/3 211/4/3 218/4/3
f 244/4/3 240/4/3 239/4/3
f 244/4/3 241/4/3 240/4/3
f 245/5/3 243/5/3 242/5/3
f 246/4/3 211/4/3 243/4/3
f 246/5/3 243/5/3 245/5/3
f 249/4/3 248/4/3 247/4/3
f 250/4/3 248/4/3 249/4/3
f 251/4/3 244/4/3 239/4/3
f 251/4/3 245/4/3 244/4/3
f 251/4/3 246/4/3 245/4/3
f 252/4/3 246/4/3 251/4/3
f 253/4/3 211/4/3 246/4/3
f 253/4/3 246/4/3 252/4/3
f 254/4/3 236/4/3 220/4/3
f 257/4/3 251/4/3 239/4/3
f 258/4/3 251/4/3 257/4/3
f 259/4/3 251/4/3 258/4/3
f 260/5/3 253/5/3 252/5/3
f 261/4/3 211/4/3 253/4/3
f 261/5/3 253/5/3 260/5/3
f 262/4/3 255/4/3 254/4/3
f 265/4/3 258/4/3 257/4/3
f 265/4/3 257/4/3 256/4/3
f 268/4/3 263/4/3 262/4/3
f 271/5/3 265/5/3 264/5/3
f 272/4/3 219/4/3 209/4/3
f 272/5/3 220/5/3 219/5/3
f 273/4/3 254/4/3 220/4/3
f 273/5/3 220/5/3 272/5/3
f 273/4/3 262/4/3 254/4/3
f 273/4/3 269/4/3 268/4/3
f 273/4/3 268/4/3 262/4/3
f 274/4/3 269/4/3 273/4/3
f 275/5/3 271/5/3 270/5/3
f 276/5/3 265/5/3 271/5/3
f 276/4/3 258/4/3 265/4/3
f 276/5/3 271/5/3 275/5/3
f 277/5/3 267/5/3 266/5/3
f 278/5/3 267/5/3 277/5/3
f 279/4/3 274/4/3 273/4/3
f 279/4/3 275/4/3 274/4/3
f 279/4/3 258/4/3 276/4/3
f 279/4/3 276/4/3 275/4/3
f 279/4/3 273/4/3 272/4/3
f 282/4/3 211/4/3 261/4/3
f 283/4/3 280/4/3 279/4/3
f 284/4/3 282/4/3 281/4/3
f 285/4/3 211/4/3 282/4/3
f 285/4/3 284/4/3 283/4/3
f 285/4/3 282/4/3 284/4/3
f 286/4/3 210/4/3 212/4/3
f 287/4/3 285/4/3 283/4/3
f 287/4/3 286/4/3 285/4/3
f 287/4/3 283/4/3 279/4/3
f 287/4/3 279/4/3 272/4/3
f 287/4/3 272/4/3 209/4/3
f 288/4/3 210/4/3 286/4/3
f 288/4/3 286/4/3 287/4/3
f 291/6/3 290/6/3 289/6/3
f 292/6/3 290/6/3 291/6/3
f 293/6/3 291/6/3 289/6/3
f 294/6/3 291/6/3 293/6/3
f 295/2/3 292/2/3 291/2/3
f 296/2/3 292/2/3 295/2/3
f 297/2/3 292/2/3 296/2/3
f 298/2/3 292/2/3 297/2/3
f 299/6/3 293/6/3 289/6/3
f 299/2/3 294/2/3 293/2/3
f 300/2/3 294/2/3 299/2/3
f 301/2/3 294/2/3 300/2/3
f 302/2/3 294/2/3 301/2/3
f 303/2/3 295/2/3 291/2/3
f 303/6/3 296/6/3 295/6/3
f 304/2/3 297/2/3 296/2/3
f 304/6/3 296/6/3 303/6/3
f 305/6/3 298/6/3 297/6/3
f 305/2/3 297/2/3 304/2/3
f 306/2/3 292/2/3 298/2/3
f 306/6/3 298/6/3 305/6/3
f 307/6/3 300/6/3 299/6/3
f 308/2/3 301/2/3 300/2/3
f 308/6/3 300/6/3 307/6/3
f 309/6/3 291/6/3 294/6/3
f 309/2/3 304/2/3 303/2/3
f 309/2/3 303/2/3 291/2/3
f 310/6/3 305/6/3 304/6/3
f 310/2/3 304/2/3 309/2/3
f 311/2/3 306/2/3 305/2/3
f 311/6/3 305/6/3 310/6/3
f 312/6/3 290/6/3 292/6/3
f 312/2/3 306/2/3 311/2/3
f 312/2/3 292/2/3 306/2/3
f 313/6/3 299/6/3 289/6/3
f 313/6/3 307/6/3 299/6/3
f 314/2/3 308/2/3 307/2/3
f 314/6/3 307/6/3 313/6/3
f 315/2/3 301/2/3 308/2/3
f 315/2/3 308/2/3 314/2/3
f 315/6/3 302/6/3 301/6/3
f 316/2/3 294/2/3 302/2/3
f 316/6/3 302/6/3 315/6/3
f 317/6/3 311/6/3 310/6/3
f 317/2/3 294/2/3 316/2/3
f 317/6/3 309/6/3 294/6/3
f 317/6/3 312/6/3 311/6/3
f 317/6/3 310/6/3 309/6/3
f 318/6/3 312/6/3 317/6/3
f 319/6/3 290/6/3 312/6/3
f 319/6/3 312/6/3 318/6/3
f 320/2/3 314/2/3 313/2/3
f 320/6/3 313/6/3 289/6/3
f 321/6/3 315/6/3 314/6/3
f 321/2/3 314/2/3 320/2/3
f 322/2/3 316/2/3 315/2/3
f 322/6/3 315/6/3 321/6/3
f 323/6/3 318/6/3 317/6/3
f 323/2/3 316/2/3 322/2/3
f 323/6/3 317/6/3 316/6/3
f 324/2/3 319/2/3 318/2/3
f 325/2/3 319/2/3 324/2/3
f 326/6/3 321/6/3 320/6/3
f 326/6/3 322/6/3 321/6/3
f 326/6/3 323/6/3 322/6/3
f 327/6/3 323/6/3 326/6/3
f 328/6/3 325/6/3 324/6/3
f 328/2/3 324/2/3 318/2/3
f 329/2/3 319/2/3 325/2/3
f 329/6/3 325/6/3 328/6/3
f 330/2/3 328/2/3 318/2/3
f 330/6/3 323/6/3 327/6/3
f 330/2/3 329/2/3 328/2/3
f 330/6/3 318/6/3 323/6/3
f 331/2/3 319/2/3 329/2/3
f 331/2/3 329/2/3 330/2/3
f 331/6/3 290/6/3 319/6/3
f 332/6/3 326/6/3 320/6/3
f 332/2/3 327/2/3 326/2/3
f 333/6/3 330/6/3 327/6/3
f 333/2/3 327/2/3 332/2/3
f 333/6/3 331/6/3 330/6/3
f 334/6/3 331/6/3 333/6/3
f 335/6/3 290/6/3 331/6/3
f 335/6/3 331/6/3 334/6/3
f 336/6/3 332/6/3 320/6/3
f 336/6/3 320/6/3 289/6/3
f 336/6/3 334/6/3 333/6/3
f 336/6/3 333/6/3 332/6/3
f 337/6/3 334/6/3 336/6/3
f 338/6/3 334/6/3 337/6/3
f 339/6/3 334/6/3 338/6/3
f 340/6/3 334/6/3 339/6/3
f 341/2/3 335/2/3 334/2/3
f 341/6/3 334/6/3 340/6/3
f 342/2/3 337/2/3 336/2/3
f 343/2/3 337/2/3 342/2/3
f 344/6/3 340/6/3 339/6/3
f 344/2/3 341/2/3 340/2/3
f 345/2/3 335/2/3 341/2/3
f 345/2/3 341/2/3 344/2/3
f 346/2/3 337/2/3 343/2/3
f 346/6/3 338/6/3 337/6/3
f 347/2/3 339/2/3 338/2/3
f 347/6/3 338/6/3 346/6/3
f 348/2/3 335/2/3 345/2/3
f 348/6/3 345/6/3 344/6/3
f 349/6/3 290/6/3 335/6/3
f 349/2/3 335/2/3 348/2/3
f 350/6/3 336/6/3 289/6/3
f 350/2/3 342/2/3 336/2/3
f 351/6/3 343/6/3 342/6/3
f 351/2/3 342/2/3 350/2/3
f 352/2/3 347/2/3 346/2/3
f 352/6/3 343/6/3 351/6/3
f 352/2/3 346/2/3 343/2/3
f 353/6/3 348/6/3 344/6/3
f 353/2/3 347/2/3 352/2/3
f 353/2/3 339/2/3 347/2/3
f 353/6/3 344/6/3 339/6/3
f 353/6/3 349/6/3 348/6/3
f 354/6/3 349/6/3 353/6/3
f 355/6/3 349/6/3 354/6/3
f 356/6/3 352/6/3 351/6/3
f 356/6/3 350/6/3 289/6/3
f 356/6/3 351/6/3 350/6/3
f 356/6/3 354/6/3 353/6/3
f 356/6/3 353/6/3 352/6/3
f 357/6/3 354/6/3 356/6/3
f 358/2/3 357/2/3 356/2/3
f 359/2/3 357/2/3 358/2/3
f 360/2/3 358/2/3 356/2/3
f 360/6/3 359/6/3 358/6/3
f 361/2/3 357/2/3 359/2/3
f 361/6/3 359/6/3 360/6/3
f 362/2/3 355/2/3 354/2/3
f 362/6/3 354/6/3 357/6/3
f 363/6/3 349/6/3 355/6/3
f 363/2/3 355/2/3 362/2/3
f 364/6/3 356/6/3 289/6/3
f 364/2/3 361/2/3 360/2/3
f 364/2/3 360/2/3 356/2/3
f 365/6/3 362/6/3 357/6/3
f 365/2/3 361/2/3 364/2/3
f 365/2/3 357/2/3 361/2/3
f 365/6/3 363/6/3 362/6/3
f 366/6/3 364/6/3 289/6/3
f 366/6/3 365/6/3 364/6/3
f 367/6/3 363/6/3 365/6/3
f 367/6/3 365/6/3 366/6/3
f 367/6/3 349/6/3 363/6/3
f 367/6/3 290/6/3 349/6/3
f 368/4/4 369/4/4 370/4/4
f 370/4/4 369/4/4 371/4/4
f 374/4/5 373/4/5 372/4/5
f 375/4/5 373/4/5 374/4/5
f 376/4/5 374/4/5 372/4/5
f 376/6/5 375/6/5 374/6/5
f 377/4/5 373/4/5 375/4/5
f 377/6/5 375/6/5 376/6/5
f 378/4/5 376/4/5 372/4/5
f 378/4/5 377/4/5 376/4/5
f 379/4/5 373/4/5 377/4/5
f 379/4/5 377/4/5 378/4/5
f 382/6/5 381/6/5 380/6/5
f 383/6/5 381/6/5 382/6/5
f 388/6/5 385/6/5 384/6/5
f 389/6/5 385/6/5 388/6/5
f 390/6/5 387/6/5 386/6/5
f 391/6/5 387/6/5 390/6/5
f 396/6/5 393/6/5 392/6/5
f 397/6/5 393/6/5 396/6/5
f 398/6/5 395/6/5 394/6/5
f 399/6/5 395/6/5 398/6/5
f 404/6/5 401/6/5 400/6/5
f 405/6/5 401/6/5 404/6/5
f 406/6/5 403/6/5 402/6/5
f 407/6/5 403/6/5 406/6/5
f 410/6/5 409/6/5 408/6/5
f 411/6/5 409/6/5 410/6/5
f 416/6/5 413/6/5 412/6/5
f 417/6/5 413/6/5 416/6/5
f 418/6/5 415/6/5 414/6/5
f 419/6/5 415/6/5 418/6/5
f 428/6/5 421/6/5 420/6/5
f 429/6/5 421/6/5 428/6/5
f 430/6/5 423/6/5 422/6/5
f 431/6/5 423/6/5 430/6/5
f 432/6/5 425/6/5 424/6/5
f 433/6/5 425/6/5 432/6/5
f 434/6/5 427/6/5 426/6/5
f 435/6/5 427/6/5 434/6/5
f 440/6/5 437/6/5 436/6/5
f 441/6/5 437/6/5 440/6/5
f 442/6/5 439/6/5 438/6/5
f 443/6/5 439/6/5 442/6/5
f 446/4/5 445/4/5 444/4/5
f 447/4/5 445/4/5 446/4/5
f 448/6/6 449/6/6 450/6/6
f 450/6/6 449/6/6 451/6/6
f 452/6/6 453/6/6 456/6/6
f 456/6/6 453/6/6 457/6/6
f 454/6/6 455/6/6 458/6/6
f 458/6/6 455/6/6 459/6/6
f 460/6/6 461/6/6 464/6/6
f 464/6/6 461/6/6 465/6/6
f 462/6/6 463/6/6 466/6/6
f 466/6/6 463/6/6 467/6/6
f 468/6/6 469/6/6 472/6/6
f 472/6/6 469/6/6 473/6/6
f 470/6/6 471/6/6 474/6/6
f 474/6/6 471/6/6 475/6/6
f 476/6/6 477/6/6 478/6/6
f 478/6/6 477/6/6 479/6/6
f 480/6/6 481/6/6 484/6/6
f 484/6/6 481/6/6 485/6/6
f 482/6/6 483/6/6 486/6/6
f 486/6/6 483/6/6 487/6/6
f 488/6/6 489/6/6 496/6/6
f 496/6/6 489/6/6 497/6/6
f 490/6/6 491/6/6 498/6/6
f 498/6/6 491/6/6 499/6/6
f 492/6/6 493/6/6 500/6/6
f 500/6/6 493/6/6 501/6/6
f 494/6/6 495/6/6 502/6/6
f 502/6/6 495/6/6 503/6/6
f 504/6/6 505/6/6 508/6/6
f 508/6/6 505/6/6 509/6/6
f 506/6/6 507/6/6 510/6/6
f 510/6/6 507/6/6 511/6/6
f 512/4/6 513/4/6 514/4/6
f 514/4/6 513/4/6 515/4/6
f 516/4/6 517/4/6 518/4/6
f 518/4/6 517/4/6 519/4/6
