# MagicaVoxel @ Ephtracy

# group
o 

# material
mtllib doubledoor.mtl
usemtl palette

# normals
vn -1 0 0
vn 1 0 0
vn 0 0 1
vn 0 0 -1
vn 0 -1 0
vn 0 1 0

# texcoords
vt 0.587891 0.5
vt 0.958984 0.5
vt 0.962891 0.5
vt 0.970703 0.5
vt 0.978516 0.5
vt 0.982422 0.5
vt 0.986328 0.5

# verts
v 0 2 -3
v 0 2 -3.3
v 0 7.7 -3
v 0 7.7 -3.3
v 5.1 2 -3
v 5.1 2 -3.3
v 5.1 7.7 -3
v 5.1 7.7 -3.3
v 0 2 -3
v 0 7.7 -3
v 0.1 2.4 -3
v 0.1 2.5 -3
v 0.1 3.8 -3
v 0.1 3.9 -3
v 0.1 5.3 -3
v 0.1 5.4 -3
v 0.1 6.7 -3
v 0.1 6.8 -3
v 0.2 2.4 -3
v 0.2 2.5 -3
v 0.2 3.8 -3
v 0.2 3.9 -3
v 0.2 5.3 -3
v 0.2 5.4 -3
v 0.2 6.7 -3
v 0.2 6.8 -3
v 0.2 7.4 -3
v 0.2 7.5 -3
v 0.3 6.2 -3
v 0.3 6.3 -3
v 0.3 7.4 -3
v 0.3 7.5 -3
v 0.4 2.9 -3
v 0.4 3 -3
v 0.4 4.8 -3
v 0.4 4.9 -3
v 0.4 6.2 -3
v 0.4 6.3 -3
v 0.4 7 -3
v 0.4 7.1 -3
v 0.5 2.9 -3
v 0.5 3 -3
v 0.5 4.8 -3
v 0.5 4.9 -3
v 0.5 7 -3
v 0.5 7.1 -3
v 0.6 2 -3
v 0.6 2.3 -3
v 0.6 6.8 -3
v 0.6 7.1 -3
v 0.7 2.3 -3
v 0.7 6.8 -3
v 0.9 4.9 -3
v 0.9 5 -3
v 1 4.9 -3
v 1 5 -3
v 1.1 3.2 -3
v 1.1 3.4 -3
v 1.2 3.2 -3
v 1.2 3.4 -3
v 1.2 4.4 -3
v 1.2 4.9 -3
v 1.2 5.9 -3
v 1.2 6 -3
v 1.3 4.4 -3
v 1.3 4.9 -3
v 1.3 5.9 -3
v 1.3 6 -3
v 1.4 5.7 -3
v 1.4 5.8 -3
v 1.5 4.4 -3
v 1.5 4.5 -3
v 1.5 5.7 -3
v 1.5 5.8 -3
v 1.6 4.4 -3
v 1.6 4.5 -3
v 1.9 4 -3
v 1.9 5.1 -3
v 1.9 6.4 -3
v 1.9 6.5 -3
v 2 2.9 -3
v 2 3 -3
v 2 4.1 -3
v 2 5 -3
v 2 6.4 -3
v 2 6.5 -3
v 2.1 2.9 -3
v 2.1 3 -3
v 2.1 4.4 -3
v 2.1 4.7 -3
v 2.2 4.5 -3
v 2.2 4.6 -3
v 2.3 4.5 -3
v 2.3 4.6 -3
v 2.4 2.3 -3
v 2.4 4 -3
v 2.4 4.1 -3
v 2.4 4.4 -3
v 2.4 4.7 -3
v 2.4 5 -3
v 2.4 5.1 -3
v 2.4 6.8 -3
v 2.7 2.3 -3
v 2.7 4 -3
v 2.7 4.1 -3
v 2.7 4.4 -3
v 2.7 4.7 -3
v 2.7 5 -3
v 2.7 5.1 -3
v 2.7 6.8 -3
v 2.7 7.3 -3
v 2.7 7.4 -3
v 2.8 4.5 -3
v 2.8 4.6 -3
v 2.8 7.3 -3
v 2.8 7.4 -3
v 2.9 2.5 -3
v 2.9 2.6 -3
v 2.9 4.5 -3
v 2.9 4.6 -3
v 2.9 5.3 -3
v 2.9 5.4 -3
v 2.9 6.4 -3
v 2.9 6.5 -3
v 3 2.5 -3
v 3 2.6 -3
v 3 4.4 -3
v 3 4.7 -3
v 3 5.3 -3
v 3 5.4 -3
v 3 6.4 -3
v 3 6.5 -3
v 3.1 4.1 -3
v 3.1 5 -3
v 3.2 4 -3
v 3.2 5.1 -3
v 3.2 5.9 -3
v 3.2 6 -3
v 3.3 5.9 -3
v 3.3 6 -3
v 3.5 7.4 -3
v 3.5 7.5 -3
v 3.6 3.2 -3
v 3.6 3.3 -3
v 3.6 7.4 -3
v 3.6 7.5 -3
v 3.7 3.2 -3
v 3.7 3.3 -3
v 3.7 6.4 -3
v 3.7 6.5 -3
v 3.8 5.1 -3
v 3.8 5.2 -3
v 3.8 6 -3
v 3.8 6.1 -3
v 3.8 6.4 -3
v 3.8 6.5 -3
v 3.9 5.1 -3
v 3.9 5.2 -3
v 3.9 6 -3
v 3.9 6.1 -3
v 4 4.2 -3
v 4 4.6 -3
v 4.1 4.2 -3
v 4.1 4.6 -3
v 4.4 2.3 -3
v 4.4 6.8 -3
v 4.5 2 -3
v 4.5 2.3 -3
v 4.5 6.8 -3
v 4.5 7.1 -3
v 4.5 7.3 -3
v 4.5 7.5 -3
v 4.6 7.3 -3
v 4.6 7.5 -3
v 4.9 2.6 -3
v 4.9 2.7 -3
v 4.9 4.9 -3
v 4.9 5 -3
v 4.9 5.9 -3
v 4.9 6 -3
v 5 2.6 -3
v 5 2.7 -3
v 5 4.9 -3
v 5 5 -3
v 5 5.9 -3
v 5 6 -3
v 5.1 2 -3
v 5.1 7.7 -3
v 0 2 -3.3
v 0 7.7 -3.3
v 0.6 2 -3.3
v 0.6 2.3 -3.3
v 0.6 6.8 -3.3
v 0.6 7.1 -3.3
v 2.1 4.4 -3.3
v 2.1 4.7 -3.3
v 2.4 2.3 -3.3
v 2.4 4.4 -3.3
v 2.4 4.7 -3.3
v 2.4 6.8 -3.3
v 2.7 2.3 -3.3
v 2.7 4.4 -3.3
v 2.7 4.7 -3.3
v 2.7 6.8 -3.3
v 3 4.4 -3.3
v 3 4.7 -3.3
v 4.5 2 -3.3
v 4.5 2.3 -3.3
v 4.5 6.8 -3.3
v 4.5 7.1 -3.3
v 5.1 2 -3.3
v 5.1 7.7 -3.3
v 0 2 -3
v 0.6 2 -3
v 4.5 2 -3
v 5.1 2 -3
v 0 2 -3.3
v 0.6 2 -3.3
v 4.5 2 -3.3
v 5.1 2 -3.3
v 0 7.7 -3
v 5.1 7.7 -3
v 0 7.7 -3.3
v 5.1 7.7 -3.3

# faces
f 3/6/1 2/6/1 1/6/1
f 4/6/1 2/6/1 3/6/1
f 5/6/2 6/6/2 7/6/2
f 7/6/2 6/6/2 8/6/2
f 11/6/3 10/6/3 9/6/3
f 12/6/3 10/6/3 11/6/3
f 13/6/3 10/6/3 12/6/3
f 14/6/3 10/6/3 13/6/3
f 15/6/3 10/6/3 14/6/3
f 16/6/3 10/6/3 15/6/3
f 17/6/3 10/6/3 16/6/3
f 18/6/3 10/6/3 17/6/3
f 19/6/3 11/6/3 9/6/3
f 19/7/3 12/7/3 11/7/3
f 20/6/3 13/6/3 12/6/3
f 20/7/3 12/7/3 19/7/3
f 21/7/3 14/7/3 13/7/3
f 21/6/3 13/6/3 20/6/3
f 22/6/3 15/6/3 14/6/3
f 22/7/3 14/7/3 21/7/3
f 23/7/3 16/7/3 15/7/3
f 23/6/3 15/6/3 22/6/3
f 24/6/3 17/6/3 16/6/3
f 24/7/3 16/7/3 23/7/3
f 25/7/3 18/7/3 17/7/3
f 25/6/3 17/6/3 24/6/3
f 26/6/3 10/6/3 18/6/3
f 26/7/3 18/7/3 25/7/3
f 27/6/3 10/6/3 26/6/3
f 28/6/3 10/6/3 27/6/3
f 29/6/3 25/6/3 24/6/3
f 29/6/3 24/6/3 23/6/3
f 29/6/3 20/6/3 19/6/3
f 29/6/3 27/6/3 26/6/3
f 29/6/3 26/6/3 25/6/3
f 29/6/3 23/6/3 22/6/3
f 29/6/3 22/6/3 21/6/3
f 29/6/3 21/6/3 20/6/3
f 30/6/3 27/6/3 29/6/3
f 31/7/3 28/7/3 27/7/3
f 31/6/3 27/6/3 30/6/3
f 32/6/3 10/6/3 28/6/3
f 32/7/3 28/7/3 31/7/3
f 33/6/3 29/6/3 19/6/3
f 34/6/3 29/6/3 33/6/3
f 35/6/3 29/6/3 34/6/3
f 36/6/3 29/6/3 35/6/3
f 37/7/3 30/7/3 29/7/3
f 37/6/3 29/6/3 36/6/3
f 38/6/3 31/6/3 30/6/3
f 38/7/3 30/7/3 37/7/3
f 38/6/3 32/6/3 31/6/3
f 39/6/3 32/6/3 38/6/3
f 40/6/3 32/6/3 39/6/3
f 41/6/3 33/6/3 19/6/3
f 41/7/3 34/7/3 33/7/3
f 42/6/3 35/6/3 34/6/3
f 42/7/3 34/7/3 41/7/3
f 43/7/3 36/7/3 35/7/3
f 43/6/3 35/6/3 42/6/3
f 44/6/3 37/6/3 36/6/3
f 44/7/3 36/7/3 43/7/3
f 44/6/3 38/6/3 37/6/3
f 44/6/3 39/6/3 38/6/3
f 45/7/3 40/7/3 39/7/3
f 45/6/3 39/6/3 44/6/3
f 46/6/3 32/6/3 40/6/3
f 46/7/3 40/7/3 45/7/3
f 47/6/3 43/6/3 42/6/3
f 47/6/3 42/6/3 41/6/3
f 47/6/3 46/6/3 45/6/3
f 47/6/3 44/6/3 43/6/3
f 47/6/3 45/6/3 44/6/3
f 47/6/3 41/6/3 19/6/3
f 47/6/3 19/6/3 9/6/3
f 48/6/3 46/6/3 47/6/3
f 49/6/3 46/6/3 48/6/3
f 50/6/3 32/6/3 46/6/3
f 50/6/3 46/6/3 49/6/3
f 51/7/3 49/7/3 48/7/3
f 51/5/3 48/5/3 47/5/3
f 52/5/3 50/5/3 49/5/3
f 52/7/3 49/7/3 51/7/3
f 53/2/3 52/2/3 51/2/3
f 54/2/3 52/2/3 53/2/3
f 55/2/3 53/2/3 51/2/3
f 55/3/3 54/3/3 53/3/3
f 56/2/3 52/2/3 54/2/3
f 56/3/3 54/3/3 55/3/3
f 57/2/3 55/2/3 51/2/3
f 57/2/3 56/2/3 55/2/3
f 58/2/3 56/2/3 57/2/3
f 59/2/3 57/2/3 51/2/3
f 59/3/3 58/3/3 57/3/3
f 60/2/3 56/2/3 58/2/3
f 60/3/3 58/3/3 59/3/3
f 61/2/3 56/2/3 60/2/3
f 62/2/3 56/2/3 61/2/3
f 63/2/3 52/2/3 56/2/3
f 63/2/3 56/2/3 62/2/3
f 64/2/3 52/2/3 63/2/3
f 65/3/3 62/3/3 61/3/3
f 65/2/3 60/2/3 59/2/3
f 65/2/3 61/2/3 60/2/3
f 66/2/3 63/2/3 62/2/3
f 66/3/3 62/3/3 65/3/3
f 67/3/3 64/3/3 63/3/3
f 67/2/3 63/2/3 66/2/3
f 68/2/3 52/2/3 64/2/3
f 68/3/3 64/3/3 67/3/3
f 69/2/3 67/2/3 66/2/3
f 69/2/3 66/2/3 65/2/3
f 69/2/3 68/2/3 67/2/3
f 70/2/3 68/2/3 69/2/3
f 71/2/3 65/2/3 59/2/3
f 71/2/3 69/2/3 65/2/3
f 72/2/3 69/2/3 71/2/3
f 73/3/3 70/3/3 69/3/3
f 73/2/3 69/2/3 72/2/3
f 74/2/3 68/2/3 70/2/3
f 74/3/3 70/3/3 73/3/3
f 75/3/3 72/3/3 71/3/3
f 75/2/3 71/2/3 59/2/3
f 76/2/3 73/2/3 72/2/3
f 76/3/3 72/3/3 75/3/3
f 76/2/3 74/2/3 73/2/3
f 77/2/3 75/2/3 59/2/3
f 77/2/3 76/2/3 75/2/3
f 78/2/3 74/2/3 76/2/3
f 78/2/3 76/2/3 77/2/3
f 79/2/3 52/2/3 68/2/3
f 79/2/3 74/2/3 78/2/3
f 79/2/3 68/2/3 74/2/3
f 80/2/3 52/2/3 79/2/3
f 81/2/3 59/2/3 51/2/3
f 81/2/3 77/2/3 59/2/3
f 82/2/3 77/2/3 81/2/3
f 83/4/3 78/4/3 77/4/3
f 84/4/3 78/4/3 83/4/3
f 85/3/3 80/3/3 79/3/3
f 85/2/3 79/2/3 78/2/3
f 86/2/3 52/2/3 80/2/3
f 86/3/3 80/3/3 85/3/3
f 87/2/3 81/2/3 51/2/3
f 87/3/3 82/3/3 81/3/3
f 88/2/3 77/2/3 82/2/3
f 88/3/3 82/3/3 87/3/3
f 89/2/3 84/2/3 83/2/3
f 90/2/3 84/2/3 89/2/3
f 91/7/3 90/7/3 89/7/3
f 92/7/3 90/7/3 91/7/3
f 93/7/3 91/7/3 89/7/3
f 93/1/3 92/1/3 91/1/3
f 94/7/3 90/7/3 92/7/3
f 94/1/3 92/1/3 93/1/3
f 95/5/3 51/5/3 47/5/3
f 95/2/3 87/2/3 51/2/3
f 95/2/3 88/2/3 87/2/3
f 96/2/3 77/2/3 88/2/3
f 96/2/3 88/2/3 95/2/3
f 96/4/3 83/4/3 77/4/3
f 97/2/3 89/2/3 83/2/3
f 97/4/3 83/4/3 96/4/3
f 98/7/3 94/7/3 93/7/3
f 98/2/3 89/2/3 97/2/3
f 98/7/3 93/7/3 89/7/3
f 99/7/3 90/7/3 94/7/3
f 99/7/3 94/7/3 98/7/3
f 99/2/3 84/2/3 90/2/3
f 100/4/3 78/4/3 84/4/3
f 100/2/3 84/2/3 99/2/3
f 101/2/3 85/2/3 78/2/3
f 101/4/3 78/4/3 100/4/3
f 101/2/3 86/2/3 85/2/3
f 102/5/3 50/5/3 52/5/3
f 102/2/3 86/2/3 101/2/3
f 102/2/3 52/2/3 86/2/3
f 103/5/3 98/5/3 97/5/3
f 103/5/3 101/5/3 100/5/3
f 103/5/3 102/5/3 101/5/3
f 103/5/3 96/5/3 95/5/3
f 103/5/3 95/5/3 47/5/3
f 103/5/3 99/5/3 98/5/3
f 103/5/3 100/5/3 99/5/3
f 103/5/3 97/5/3 96/5/3
f 104/5/3 102/5/3 103/5/3
f 105/5/3 102/5/3 104/5/3
f 106/5/3 102/5/3 105/5/3
f 107/5/3 102/5/3 106/5/3
f 108/5/3 102/5/3 107/5/3
f 109/5/3 102/5/3 108/5/3
f 110/5/3 50/5/3 102/5/3
f 110/5/3 102/5/3 109/5/3
f 111/6/3 32/6/3 50/6/3
f 112/6/3 32/6/3 111/6/3
f 113/7/3 107/7/3 106/7/3
f 114/7/3 107/7/3 113/7/3
f 115/6/3 111/6/3 50/6/3
f 115/7/3 112/7/3 111/7/3
f 116/6/3 32/6/3 112/6/3
f 116/7/3 112/7/3 115/7/3
f 117/2/3 104/2/3 103/2/3
f 118/2/3 104/2/3 117/2/3
f 119/1/3 114/1/3 113/1/3
f 119/7/3 113/7/3 106/7/3
f 120/7/3 107/7/3 114/7/3
f 120/1/3 114/1/3 119/1/3
f 121/2/3 110/2/3 109/2/3
f 122/2/3 110/2/3 121/2/3
f 123/2/3 110/2/3 122/2/3
f 124/2/3 110/2/3 123/2/3
f 125/3/3 118/3/3 117/3/3
f 125/2/3 117/2/3 103/2/3
f 126/2/3 104/2/3 118/2/3
f 126/3/3 118/3/3 125/3/3
f 127/2/3 106/2/3 105/2/3
f 127/7/3 119/7/3 106/7/3
f 127/7/3 120/7/3 119/7/3
f 128/2/3 108/2/3 107/2/3
f 128/7/3 120/7/3 127/7/3
f 128/7/3 107/7/3 120/7/3
f 129/3/3 122/3/3 121/3/3
f 129/2/3 121/2/3 109/2/3
f 130/2/3 123/2/3 122/2/3
f 130/3/3 122/3/3 129/3/3
f 131/3/3 124/3/3 123/3/3
f 131/2/3 123/2/3 130/2/3
f 132/2/3 110/2/3 124/2/3
f 132/3/3 124/3/3 131/3/3
f 133/4/3 105/4/3 104/4/3
f 133/2/3 127/2/3 105/2/3
f 133/2/3 128/2/3 127/2/3
f 134/4/3 109/4/3 108/4/3
f 134/2/3 128/2/3 133/2/3
f 134/2/3 108/2/3 128/2/3
f 135/4/3 133/4/3 104/4/3
f 135/2/3 104/2/3 126/2/3
f 135/4/3 134/4/3 133/4/3
f 135/2/3 126/2/3 125/2/3
f 136/4/3 109/4/3 134/4/3
f 136/4/3 134/4/3 135/4/3
f 136/2/3 130/2/3 129/2/3
f 136/2/3 131/2/3 130/2/3
f 136/2/3 132/2/3 131/2/3
f 136/2/3 129/2/3 109/2/3
f 137/2/3 132/2/3 136/2/3
f 138/2/3 132/2/3 137/2/3
f 139/2/3 136/2/3 135/2/3
f 139/2/3 137/2/3 136/2/3
f 139/3/3 138/3/3 137/3/3
f 140/2/3 132/2/3 138/2/3
f 140/3/3 138/3/3 139/3/3
f 141/6/3 32/6/3 116/6/3
f 141/6/3 116/6/3 115/6/3
f 142/6/3 10/6/3 32/6/3
f 142/6/3 32/6/3 141/6/3
f 143/2/3 135/2/3 125/2/3
f 143/2/3 140/2/3 139/2/3
f 143/2/3 139/2/3 135/2/3
f 144/2/3 140/2/3 143/2/3
f 145/6/3 141/6/3 115/6/3
f 145/7/3 142/7/3 141/7/3
f 146/6/3 10/6/3 142/6/3
f 146/7/3 142/7/3 145/7/3
f 147/3/3 144/3/3 143/3/3
f 147/2/3 143/2/3 125/2/3
f 148/2/3 140/2/3 144/2/3
f 148/3/3 144/3/3 147/3/3
f 149/2/3 132/2/3 140/2/3
f 149/2/3 140/2/3 148/2/3
f 150/2/3 110/2/3 132/2/3
f 150/2/3 132/2/3 149/2/3
f 151/2/3 148/2/3 147/2/3
f 151/2/3 149/2/3 148/2/3
f 152/2/3 149/2/3 151/2/3
f 153/2/3 149/2/3 152/2/3
f 154/2/3 149/2/3 153/2/3
f 155/3/3 150/3/3 149/3/3
f 155/2/3 149/2/3 154/2/3
f 156/2/3 110/2/3 150/2/3
f 156/3/3 150/3/3 155/3/3
f 157/2/3 151/2/3 147/2/3
f 157/3/3 152/3/3 151/3/3
f 158/2/3 153/2/3 152/2/3
f 158/3/3 152/3/3 157/3/3
f 159/3/3 154/3/3 153/3/3
f 159/2/3 153/2/3 158/2/3
f 160/2/3 155/2/3 154/2/3
f 160/3/3 154/3/3 159/3/3
f 160/2/3 156/2/3 155/2/3
f 161/2/3 159/2/3 158/2/3
f 161/2/3 158/2/3 157/2/3
f 161/2/3 160/2/3 159/2/3
f 161/2/3 157/2/3 147/2/3
f 162/2/3 160/2/3 161/2/3
f 163/2/3 161/2/3 147/2/3
f 163/3/3 162/3/3 161/3/3
f 164/2/3 160/2/3 162/2/3
f 164/3/3 162/3/3 163/3/3
f 165/2/3 147/2/3 125/2/3
f 165/5/3 103/5/3 47/5/3
f 165/2/3 164/2/3 163/2/3
f 165/2/3 163/2/3 147/2/3
f 165/2/3 125/2/3 103/2/3
f 166/5/3 50/5/3 110/5/3
f 166/2/3 164/2/3 165/2/3
f 166/2/3 160/2/3 164/2/3
f 166/2/3 156/2/3 160/2/3
f 166/2/3 110/2/3 156/2/3
f 167/5/3 165/5/3 47/5/3
f 168/7/3 166/7/3 165/7/3
f 168/5/3 165/5/3 167/5/3
f 169/5/3 50/5/3 166/5/3
f 169/7/3 166/7/3 168/7/3
f 170/6/3 115/6/3 50/6/3
f 170/5/3 50/5/3 169/5/3
f 170/6/3 145/6/3 115/6/3
f 170/6/3 146/6/3 145/6/3
f 171/6/3 146/6/3 170/6/3
f 172/6/3 10/6/3 146/6/3
f 172/6/3 146/6/3 171/6/3
f 173/6/3 168/6/3 167/6/3
f 173/6/3 169/6/3 168/6/3
f 173/7/3 172/7/3 171/7/3
f 173/6/3 170/6/3 169/6/3
f 173/6/3 171/6/3 170/6/3
f 174/6/3 10/6/3 172/6/3
f 174/7/3 172/7/3 173/7/3
f 175/6/3 173/6/3 167/6/3
f 175/6/3 174/6/3 173/6/3
f 176/6/3 174/6/3 175/6/3
f 177/6/3 174/6/3 176/6/3
f 178/6/3 174/6/3 177/6/3
f 179/6/3 174/6/3 178/6/3
f 180/6/3 174/6/3 179/6/3
f 181/6/3 175/6/3 167/6/3
f 181/7/3 176/7/3 175/7/3
f 182/6/3 177/6/3 176/6/3
f 182/7/3 176/7/3 181/7/3
f 183/7/3 178/7/3 177/7/3
f 183/6/3 177/6/3 182/6/3
f 184/6/3 179/6/3 178/6/3
f 184/7/3 178/7/3 183/7/3
f 185/7/3 180/7/3 179/7/3
f 185/6/3 179/6/3 184/6/3
f 186/6/3 174/6/3 180/6/3
f 186/7/3 180/7/3 185/7/3
f 187/6/3 185/6/3 184/6/3
f 187/6/3 184/6/3 183/6/3
f 187/6/3 186/6/3 185/6/3
f 187/6/3 183/6/3 182/6/3
f 187/6/3 182/6/3 181/6/3
f 187/6/3 181/6/3 167/6/3
f 188/6/3 10/6/3 174/6/3
f 188/6/3 186/6/3 187/6/3
f 188/6/3 174/6/3 186/6/3
f 189/6/4 190/6/4 191/6/4
f 191/6/4 190/6/4 192/6/4
f 192/6/4 190/6/4 193/6/4
f 193/6/4 190/6/4 194/6/4
f 192/2/4 193/2/4 195/2/4
f 195/2/4 193/2/4 196/2/4
f 191/5/4 192/5/4 197/5/4
f 192/2/4 195/2/4 197/2/4
f 195/7/4 196/7/4 198/7/4
f 197/2/4 195/2/4 198/2/4
f 196/2/4 193/2/4 199/2/4
f 198/7/4 196/7/4 199/7/4
f 193/5/4 194/5/4 200/5/4
f 199/2/4 193/2/4 200/2/4
f 197/5/4 198/5/4 201/5/4
f 198/5/4 199/5/4 201/5/4
f 199/5/4 200/5/4 201/5/4
f 191/5/4 197/5/4 201/5/4
f 201/5/4 200/5/4 202/5/4
f 202/5/4 200/5/4 203/5/4
f 200/5/4 194/5/4 204/5/4
f 203/5/4 200/5/4 204/5/4
f 202/7/4 203/7/4 205/7/4
f 201/2/4 202/2/4 205/2/4
f 203/2/4 204/2/4 206/2/4
f 205/7/4 203/7/4 206/7/4
f 191/5/4 201/5/4 207/5/4
f 201/2/4 205/2/4 208/2/4
f 207/5/4 201/5/4 208/5/4
f 205/2/4 206/2/4 208/2/4
f 204/5/4 194/5/4 209/5/4
f 208/2/4 206/2/4 209/2/4
f 206/2/4 204/2/4 209/2/4
f 194/6/4 190/6/4 210/6/4
f 209/5/4 194/5/4 210/5/4
f 207/6/4 208/6/4 211/6/4
f 208/6/4 209/6/4 211/6/4
f 209/6/4 210/6/4 211/6/4
f 210/6/4 190/6/4 212/6/4
f 211/6/4 210/6/4 212/6/4
f 217/6/5 214/6/5 213/6/5
f 218/5/5 215/5/5 214/5/5
f 218/6/5 214/6/5 217/6/5
f 219/6/5 216/6/5 215/6/5
f 219/5/5 215/5/5 218/5/5
f 220/6/5 216/6/5 219/6/5
f 221/6/6 222/6/6 223/6/6
f 223/6/6 222/6/6 224/6/6
